<?xml version="1.0" encoding="utf-8"?>
<!-- Generator: Adobe Illustrator 16.0.0, SVG Export Plug-In . SVG Version: 6.00 Build 0)  -->
<!DOCTYPE svg PUBLIC "-//W3C//DTD SVG 1.1//EN" "http://www.w3.org/Graphics/SVG/1.1/DTD/svg11.dtd">
<svg version="1.1" id="Layer_1" xmlns="http://www.w3.org/2000/svg" xmlns:xlink="http://www.w3.org/1999/xlink" x="0px" y="0px"
	 width="8037.844px" height="1452.581px" viewBox="0 2180.997 8037.844 1452.581"
	 enable-background="new 0 2180.997 8037.844 1452.581" xml:space="preserve">
<polygon fill="#FFC10E" points="512.346,2444.177 700.872,2477.446 714.179,2466.356 665.384,2444.177 727.487,2428.651 
	658.731,2413.125 731.922,2384.292 656.512,2382.074 711.961,2342.151 640.987,2351.022 687.564,2304.446 627.679,2324.407 
	656.512,2273.395 605.5,2300.01 623.244,2244.562 576.667,2280.049 583.321,2220.164 550.051,2266.741 543.397,2213.51 
	516.782,2262.305 501.256,2206.856 485.731,2257.869 459.116,2213.51 452.461,2266.741 412.539,2224.6 421.411,2282.267 
	377.051,2244.562 392.577,2302.229 343.782,2271.177 374.833,2324.407 317.167,2304.446 354.872,2348.805 294.987,2344.369 
	339.346,2382.074 281.679,2382.074 339.346,2413.125 268.372,2428.651 330.474,2441.959 277.244,2470.792 341.564,2479.664 
	365.961,2455.267 403.667,2457.484 456.897,2444.177 "/>
<polygon fill="#FBBB80" points="192.961,3293.65 343.782,3224.895 390.359,3260.382 470.206,3293.65 572.231,3271.472 
	654.295,3220.459 800.679,3293.65 860.564,3158.356 727.487,3140.612 487.949,3076.292 405.884,3109.562 330.474,3127.305 
	135.295,3153.92 "/>
<g>
	<path fill="#2DA34A" stroke="#2DA34A" stroke-miterlimit="10" d="M791.807,3420.074c-11.09-2.218-26.615-2.218-46.576,6.653
		c-2.219,0-4.436,0-6.654-2.218c-2.218-2.218-2.218-4.436-2.218-6.653c0,0,6.653-13.308,6.653-28.834l0,0l0,0
		c-4.436,4.437-11.09,8.872-15.525,13.308c-13.308,15.526-19.961,33.27-19.961,51.014l0,0c2.218,0,4.436,0,8.871,0
		c4.437,0,8.872,0,13.309-2.219C745.231,3451.125,767.411,3442.254,791.807,3420.074L791.807,3420.074L791.807,3420.074"/>
	<path fill="#2DA34A" stroke="#2DA34A" stroke-miterlimit="10" d="M833.949,3362.407c-11.09,0-26.616,4.436-44.359,15.525
		c-2.218,2.218-4.436,2.218-6.653,0c-2.219-2.218-2.219-4.436-2.219-6.653c0,0,2.219-15.525,2.219-31.052l0,0l0,0
		c-4.436,4.437-8.872,11.09-11.09,15.526c-11.09,17.743-15.525,35.486-15.525,51.013l0,0h2.217c4.437,0,13.309,0,22.18-4.437
		c8.872-2.218,19.962-8.871,28.834-15.525C818.422,3382.369,827.295,3373.497,833.949,3362.407L833.949,3362.407L833.949,3362.407"
		/>
	<path fill="#2DA34A" stroke="#2DA34A" stroke-miterlimit="10" d="M869.436,3302.522c-11.09,2.218-26.615,6.654-42.141,19.962
		c-2.219,2.218-4.437,2.218-6.654,0c-2.219,0-2.219-2.218-2.219-6.654c0,0,2.219-15.525-2.217-31.051l0,0l0,0
		c-4.437,4.436-6.654,11.09-11.09,17.743c-8.872,17.744-13.309,35.487-8.872,53.231l0,0l0,0c4.436,0,13.308-2.219,24.397-6.654
		c8.871-4.436,17.743-11.09,26.615-17.743C856.127,3324.702,862.782,3313.612,869.436,3302.522L869.436,3302.522L869.436,3302.522"
		/>
	<path fill="#2DA34A" stroke="#2DA34A" stroke-miterlimit="10" d="M898.269,3238.202c-2.218,0-4.437,0-6.653,2.218
		c-8.872,2.218-22.18,8.872-33.27,22.18c-2.219,2.218-4.436,2.218-6.654,2.218c-2.218,0-4.436-2.218-4.436-4.436
		c0,0,0-15.526-4.436-28.833l0,0l0,0c-2.219,6.653-6.654,11.089-8.872,17.743c-6.653,19.962-8.872,37.705-2.218,55.448l0,0l0,0
		c4.436,0,13.307-2.218,24.396-8.871c8.873-4.437,17.744-13.309,24.398-22.18C887.179,3260.382,893.833,3249.292,898.269,3238.202
		L898.269,3238.202L898.269,3238.202"/>
	<path fill="#2DA34A" stroke="#2DA34A" stroke-miterlimit="10" d="M918.231,3171.664c-8.872,4.436-24.397,11.09-37.705,28.833
		c-2.219,2.218-4.437,2.218-6.654,2.218s-4.436-2.218-4.436-4.436c0,0-2.219-15.525-8.872-31.052l0,0l0,0l0,0
		c-2.218,6.654-4.437,13.308-6.653,19.962c-4.437,13.308-6.654,35.487,2.217,55.448l0,0l0,0c4.437,0,13.309-4.436,22.18-11.089
		c8.872-6.654,15.525-13.309,22.18-24.398C909.359,3196.062,916.012,3184.972,918.231,3171.664
		C920.449,3171.664,920.449,3171.664,918.231,3171.664L918.231,3171.664"/>
	<path fill="#2DA34A" stroke="#2DA34A" stroke-miterlimit="10" d="M252.846,3389.022L252.846,3389.022L252.846,3389.022
		c0,15.526,6.654,28.833,6.654,28.833c0,2.219,0,4.437-2.218,6.654c-2.218,2.218-4.436,2.218-6.654,2.218
		c-19.961-6.653-35.487-6.653-46.577-6.653l0,0l0,0c19.961,17.743,39.923,28.833,59.885,33.269c4.436,0,8.872,2.218,13.308,2.218
		c4.436,0,6.654,0,8.872,0l0,0C290.551,3422.292,266.154,3400.112,252.846,3389.022"/>
	<path fill="#2DA34A" stroke="#2DA34A" stroke-miterlimit="10" d="M931.539,3102.907c-8.872,4.437-22.18,15.525-33.27,33.27
		c-2.218,2.218-4.437,2.218-6.653,2.218c-2.219,0-4.437-2.218-4.437-4.436c0,0-4.436-17.744-11.09-31.052l0,0l0,0
		c-2.218,6.654-2.218,13.308-4.436,19.962c-2.218,22.18,0,39.923,8.872,55.448l0,0l0,0c4.436-2.218,13.307-6.653,19.961-13.308
		c6.654-6.653,13.309-15.525,19.962-26.615S931.539,3116.215,931.539,3102.907C933.756,3102.907,933.756,3102.907,931.539,3102.907
		L931.539,3102.907"/>
	<path fill="#2DA34A" stroke="#2DA34A" stroke-miterlimit="10" d="M909.359,3069.639c0,2.218-2.218,4.436-4.437,2.218
		c-2.217,0-4.436-2.218-4.436-4.437c0,0-4.436-15.525-15.525-26.615l0,0l0,0c-2.218,6.654-2.218,13.308-2.218,19.962
		c0,19.961,4.436,37.705,15.525,53.23l0,0l0,0c2.218-2.218,11.09-6.653,19.962-15.525c6.653-8.872,11.09-17.744,15.525-28.833
		c4.436-11.09,6.654-22.18,6.654-35.487l0,0l0,0C929.321,3038.587,918.231,3051.895,909.359,3069.639"/>
	<path fill="#2DA34A" stroke="#2DA34A" stroke-miterlimit="10" d="M907.141,3007.535c-2.219,0-4.436-2.218-4.436-2.218
		s-6.654-13.308-17.744-24.397l0,0l0,0c0,17.744,2.218,48.795,19.961,68.757l0,0l0,0c2.219-2.218,11.09-6.654,17.744-17.744
		c6.654-8.871,11.09-17.743,13.308-28.833s4.437-24.397,4.437-37.705l0,0l0,0c-8.872,6.654-19.962,19.962-26.615,37.705
		C911.577,3005.317,909.359,3005.317,907.141,3007.535"/>
	<path fill="#2DA34A" stroke="#2DA34A" stroke-miterlimit="10" d="M902.706,2938.779c-2.219,0-4.437,0-6.654-2.218
		c0,0-8.872-13.308-17.744-22.18l0,0l0,0c2.219,17.743,6.654,51.013,26.615,66.538l0,0l0,0c2.219-2.218,8.873-8.871,15.526-19.961
		c4.437-8.872,8.872-19.962,11.09-31.052s2.218-24.397,0-37.705l0,0l0,0c-6.653,6.654-17.743,19.962-22.18,39.923
		C907.141,2936.562,904.922,2938.779,902.706,2938.779"/>
	<path fill="#2DA34A" stroke="#2DA34A" stroke-miterlimit="10" d="M893.833,2874.459c-2.217,0-4.436,0-6.653-2.219
		c0,0-8.872-13.308-19.962-22.179l0,0l0,0c0,6.653,2.219,13.308,4.437,19.961c4.436,13.308,11.09,33.27,26.615,46.577l0,0l0,0
		c2.218-2.218,8.872-8.872,15.526-19.962c4.436-8.871,6.653-19.961,8.871-31.051s0-24.397-2.218-37.705l0,0l0,0
		c-6.653,8.872-15.526,22.18-19.962,42.141C898.269,2872.24,896.051,2872.24,893.833,2874.459"/>
	<path fill="#2DA34A" stroke="#2DA34A" stroke-miterlimit="10" d="M880.526,2810.139c-2.219,0-4.437,0-6.654-2.219
		c0,0-11.09-11.09-24.397-19.961l0,0l0,0c2.218,6.653,4.437,13.308,6.653,17.743c6.654,19.962,17.744,33.27,33.27,42.142l0,0l0,0
		c2.219-2.219,8.872-11.09,11.09-22.18c2.219-8.872,4.436-19.962,4.436-31.052s-2.217-24.397-6.653-35.487l0,0l0,0
		c-6.653,8.872-13.308,24.397-13.308,44.359C882.744,2805.702,882.744,2807.92,880.526,2810.139"/>
	<path fill="#2DA34A" stroke="#2DA34A" stroke-miterlimit="10" d="M851.692,2745.817c0,0-11.09-11.09-24.396-17.743l0,0l0,0
		c2.217,6.653,4.436,13.308,6.653,17.743c8.872,17.744,22.179,31.052,37.705,39.923l0,0l0,0c2.218-2.218,6.653-11.089,8.872-22.179
		c2.218-11.09,2.218-19.962,0-33.27c-2.219-11.09-4.436-22.18-11.09-35.487l0,0l0,0c-4.436,8.872-11.09,24.397-8.872,44.359
		c0,2.218-2.218,4.436-2.218,4.436C856.127,2745.817,851.692,2745.817,851.692,2745.817"/>
	<path fill="#2DA34A" stroke="#2DA34A" stroke-miterlimit="10" d="M794.026,2672.625L794.026,2672.625
		c2.218,6.654,6.653,13.308,8.871,17.744c11.09,17.743,26.615,28.833,42.142,35.487l0,0l0,0c2.218-2.218,4.436-11.09,6.653-24.397
		c0-11.09,0-22.18-2.218-33.27s-8.872-22.18-15.525-33.27l0,0l0,0c-4.437,8.872-6.653,26.615-4.437,46.577
		c0,2.218,0,4.436-2.217,6.654c-2.219,2.218-4.437,0-6.654,0C822.859,2685.933,809.551,2674.844,794.026,2672.625L794.026,2672.625"
		/>
	<path fill="#2DA34A" stroke="#2DA34A" stroke-miterlimit="10" d="M756.321,2621.612L756.321,2621.612
		c4.436,6.654,8.871,11.09,13.307,17.744c13.309,15.525,31.052,24.397,46.578,28.833l0,0l0,0c2.217-4.436,4.436-13.308,2.217-24.397
		c0-11.09-4.436-19.962-8.871-31.052c-4.436-11.089-11.09-19.961-19.962-31.051l0,0l0,0c-2.218,11.09-2.218,26.615,2.218,46.577
		c0,2.218,0,4.436-2.218,6.653c-2.218,2.219-4.437,2.219-6.653,0C785.154,2630.484,771.846,2621.612,756.321,2621.612
		L756.321,2621.612"/>
	<path fill="#2DA34A" stroke="#2DA34A" stroke-miterlimit="10" d="M749.667,2579.472c-2.218,2.218-4.436,2.218-6.654,2.218
		c0,0-13.307-4.436-28.833-4.436h-2.218l0,0l0,0c4.436,4.436,11.09,11.09,15.525,15.525c11.09,8.872,28.834,19.961,48.795,19.961
		l0,0l0,0c0-4.436,2.219-13.308-2.218-24.396c-2.218-11.09-6.653-19.962-13.308-28.834c-6.654-8.871-13.308-17.743-24.397-26.615
		l0,0l0,0c0,11.09,2.218,26.615,11.09,44.359C749.667,2577.254,749.667,2579.472,749.667,2579.472"/>
	<path fill="#2DA34A" stroke="#2DA34A" stroke-miterlimit="10" d="M239.539,3408.984h2.218l0,0
		c2.218-28.834-15.525-53.23-26.615-66.539l0,0l0,0c-2.218,13.309,2.218,28.834,2.218,28.834c0,2.218,0,4.436-2.218,6.653
		c-2.218,2.218-4.436,2.218-6.654,0c-17.744-11.09-33.27-13.308-44.359-15.525l0,0l0,0c8.872,11.09,15.525,19.962,24.397,26.615
		c8.872,6.654,17.744,13.308,28.833,15.526C226.231,3408.984,235.103,3408.984,239.539,3408.984"/>
	<path fill="#2DA34A" stroke="#2DA34A" stroke-miterlimit="10" d="M201.833,3357.972L201.833,3357.972
		C201.833,3357.972,201.833,3355.754,201.833,3357.972c4.436-22.18-2.218-42.142-8.872-53.231
		c-2.218-6.653-6.654-11.09-11.09-17.743l0,0l0,0c-2.218,15.525-2.218,28.833-2.218,28.833c0,2.219,0,4.437-2.218,6.654
		c-2.218,2.218-4.436,0-6.654,0c-15.526-13.308-31.051-17.744-42.141-19.962l0,0l0,0c6.654,11.09,13.308,22.18,22.179,28.834
		c8.872,8.871,17.744,13.308,26.616,17.743C188.525,3355.754,197.397,3355.754,201.833,3357.972"/>
	<path fill="#2DA34A" stroke="#2DA34A" stroke-miterlimit="10" d="M166.346,3302.522L166.346,3302.522L166.346,3302.522
		c6.654-17.743,4.436-35.487-2.218-55.448c-2.218-6.654-4.436-11.09-8.872-17.744l0,0l0,0c-4.436,13.308-4.436,28.834-4.436,31.052
		s-2.218,4.436-4.436,4.436c-2.218,0-4.436,0-6.654-2.218c-13.308-13.308-24.397-19.961-33.27-22.18
		c-2.218,0-4.436-2.218-6.654-2.218l0,0l0,0c4.436,11.09,11.09,22.18,19.961,31.052c6.654,8.871,15.526,15.525,24.397,22.18
		C153.039,3298.087,161.91,3300.305,166.346,3302.522"/>
	<path fill="#2DA34A" stroke="#2DA34A" stroke-miterlimit="10" d="M137.513,3242.638L137.513,3242.638L137.513,3242.638
		c13.308-28.833,4.436-59.884-2.218-73.192l0,0l0,0l0,0c-6.654,13.309-8.872,28.834-8.872,28.834c0,2.218-2.218,4.436-4.436,4.436
		c-2.218,0-4.436,0-6.654-2.218c-11.09-13.308-22.18-22.18-31.051-26.615c-2.218,0-4.436-2.218-4.436-2.218l0,0l0,0
		C93.154,3224.895,124.205,3238.202,137.513,3242.638"/>
	<path fill="#2DA34A" stroke="#2DA34A" stroke-miterlimit="10" d="M95.372,3167.228c8.872,8.872,17.744,11.09,22.18,13.308l0,0l0,0
		c11.09-17.743,13.308-37.705,8.872-55.448c-2.218-6.654-4.436-13.308-6.654-17.744l0,0l0,0
		c-8.872,13.308-11.089,28.834-11.089,31.052l0,0l0,0c0,2.218-2.218,4.436-4.436,4.436s-4.436,0-6.654-2.218
		c-11.09-17.743-24.397-26.615-35.487-31.051l0,0l0,0c2.218,13.308,6.654,24.397,13.308,35.487
		C79.846,3151.702,86.5,3160.574,95.372,3167.228"/>
	<path fill="#2DA34A" stroke="#2DA34A" stroke-miterlimit="10" d="M97.59,3116.215L97.59,3116.215L97.59,3116.215
		c22.179-28.833,19.961-57.666,17.744-73.192l0,0l0,0c-11.09,11.09-15.526,26.616-15.526,26.616c0,2.218-2.218,4.436-4.436,4.436
		l0,0l0,0c-2.218,0-4.436-2.218-4.436-4.436c-6.654-15.526-17.744-26.616-24.397-33.27c-2.218-2.218-2.218-2.218-4.436-4.437l0,0
		l0,0C59.885,3089.6,86.5,3109.562,97.59,3116.215"/>
	<path fill="#2DA34A" stroke="#2DA34A" stroke-miterlimit="10" d="M93.154,3051.895L93.154,3051.895L93.154,3051.895
		c11.09-11.09,17.744-22.18,19.961-39.923c2.218-13.308,2.218-26.615,0-33.27l0,0l0,0c-11.09,11.09-15.525,24.397-15.525,26.615
		s-2.218,4.437-4.436,4.437s-4.436-2.219-6.654-4.437c-4.436-17.743-13.308-28.833-19.961-35.487
		c-2.218-2.218-2.218-2.218-4.436-4.436l0,0l0,0C57.667,3018.625,82.064,3043.022,93.154,3051.895"/>
	<path fill="#2DA34A" stroke="#2DA34A" stroke-miterlimit="10" d="M77.628,2963.177c4.436,8.872,11.089,15.525,15.525,17.743l0,0
		l0,0c13.308-11.09,19.961-28.833,24.397-48.795c0-6.653,2.218-13.308,2.218-19.961l0,0l0,0
		c-11.089,11.09-17.744,24.397-17.744,24.397c0,2.218-4.436,4.436-6.654,2.218c-2.218,0-4.436-2.218-4.436-4.437
		c-4.436-19.961-15.526-33.269-22.18-39.923l0,0l0,0c-2.218,13.308-2.218,26.615,0,37.705
		C68.756,2943.215,70.974,2952.087,77.628,2963.177"/>
	<path fill="#2DA34A" stroke="#2DA34A" stroke-miterlimit="10" d="M84.282,2894.42c4.436,11.09,11.089,17.744,13.308,19.962l0,0l0,0
		c13.308-13.308,24.397-28.833,28.833-48.795c2.218-6.654,2.218-11.09,2.218-17.743l0,0l0,0
		c-11.09,8.871-19.961,22.179-22.18,22.179c-2.218,2.218-4.436,2.218-6.654,2.218s-4.436-2.218-4.436-4.436
		c-4.436-19.961-13.308-33.27-19.961-42.141l0,0l0,0c-2.218,13.308-2.218,24.397-2.218,37.705
		C75.41,2874.459,79.846,2885.549,84.282,2894.42"/>
	<path fill="#2DA34A" stroke="#2DA34A" stroke-miterlimit="10" d="M106.461,2850.062L106.461,2850.062
		C108.68,2850.062,108.68,2850.062,106.461,2850.062c17.744-11.09,28.833-26.615,35.487-44.359
		c2.218-6.653,2.218-11.09,4.436-17.743l0,0l0,0c-13.308,6.653-24.397,17.743-24.397,17.743c-2.218,2.218-4.436,2.218-6.654,2.218
		c-2.218,0-4.436-2.218-4.436-4.436c-2.218-19.962-8.872-35.487-15.526-44.359l0,0l0,0c-4.436,13.308-6.654,24.397-6.654,35.487
		s2.218,22.18,4.436,31.052C99.808,2838.972,104.244,2847.844,106.461,2850.062"/>
	<path fill="#2DA34A" stroke="#2DA34A" stroke-miterlimit="10" d="M124.205,2785.74L124.205,2785.74L124.205,2785.74
		c19.961-8.871,33.269-22.179,42.141-39.923c2.218-4.436,4.436-11.09,6.654-17.743l0,0l0,0
		c-13.308,6.653-26.615,15.525-26.615,17.743c-2.218,2.218-4.436,2.218-6.654,0c-2.218,0-4.436-2.218-2.218-4.436
		c0-19.962-4.436-35.487-8.872-44.359l0,0l0,0l0,0c-4.436,11.09-8.872,24.397-11.09,35.487s-2.218,22.18,0,33.27
		C117.551,2774.651,121.987,2781.305,124.205,2785.74"/>
	<path fill="#2DA34A" stroke="#2DA34A" stroke-miterlimit="10" d="M148.603,2723.639
		C148.603,2725.856,148.603,2725.856,148.603,2723.639C148.603,2725.856,148.603,2725.856,148.603,2723.639
		c17.744-4.437,31.051-15.526,44.359-33.27c4.436-6.654,8.872-13.308,11.09-17.744l0,0l0,0
		c-15.526,2.219-28.833,13.308-28.833,13.308c-2.218,2.219-4.436,2.219-6.654,0c-2.218-2.218-4.436-4.436-2.218-6.653
		c4.436-19.962,0-35.487-2.218-46.577l0,0l0,0c-6.654,11.09-13.308,22.18-15.526,33.27c-4.436,11.09-4.436,22.18-4.436,31.051
		C144.167,2712.549,146.385,2721.42,148.603,2723.639"/>
	<path fill="#2DA34A" stroke="#2DA34A" stroke-miterlimit="10" d="M181.872,2665.972L181.872,2665.972
		c28.833-4.437,48.795-28.833,59.885-44.359l0,0l0,0c-15.525,2.218-28.833,8.872-28.833,8.872c-2.218,2.218-4.436,2.218-6.654,0
		c-2.218-2.218-2.218-4.436-2.218-6.654c6.654-19.961,4.436-35.486,4.436-46.576l0,0l0,0
		C170.782,2619.395,177.436,2652.664,181.872,2665.972L181.872,2665.972"/>
	<path fill="#2DA34A" stroke="#2DA34A" stroke-miterlimit="10" d="M221.795,2612.74L221.795,2612.74
		c17.744,0,35.487-11.089,46.577-19.961c6.654-4.436,11.09-8.872,17.744-15.525l0,0l0,0c-15.525,0-28.833,4.436-28.833,4.436
		c-2.218,0-4.436,0-6.654-2.218c-2.218-2.218-2.218-4.437,0-6.654c8.872-17.743,11.089-35.487,11.089-44.358l0,0l0,0
		c-11.089,8.871-17.744,17.743-24.397,28.833c-6.654,8.872-11.089,19.962-13.308,28.833
		C219.577,2599.434,219.577,2608.305,221.795,2612.74C219.577,2612.74,221.795,2612.74,221.795,2612.74"/>
	<path fill="#2DA34A" stroke="#2DA34A" stroke-miterlimit="10" d="M337.128,2537.33c-15.525-2.218-28.833,2.219-28.833,2.219
		c-2.218,0-4.436,0-6.654-2.219c-2.218-2.218-2.218-4.436,0-6.653c11.09-17.743,13.308-33.27,15.525-44.359l0,0l0,0
		c-44.359,31.052-46.577,64.321-46.577,77.629l0,0h2.218C299.423,2566.164,323.82,2548.42,337.128,2537.33
		C337.128,2539.549,337.128,2539.549,337.128,2537.33L337.128,2537.33"/>
	<path fill="#2DA34A" stroke="#2DA34A" stroke-miterlimit="10" d="M392.577,2510.715c-4.436-2.218-8.872-2.218-15.525-2.218
		c-8.872,0-15.526,0-15.526,0l0,0c-2.218,0-4.436-2.218-4.436-4.436s0-4.437,2.218-6.654c15.526-13.308,22.18-24.397,26.615-33.269
		l0,0l0,0c-51.013,17.743-62.103,46.576-64.32,59.884l0,0c4.436,2.219,11.09,2.219,19.961,2.219c8.872,0,22.18-2.219,35.487-6.654
		C381.487,2517.369,388.141,2515.151,392.577,2510.715L392.577,2510.715L392.577,2510.715"/>
	<path fill="#2DA34A" stroke="#2DA34A" stroke-miterlimit="10" d="M454.679,2495.189c-13.308-6.654-28.833-8.872-28.833-8.872
		c-2.219,0-4.436-2.218-4.436-4.436s0-4.436,2.217-6.654c17.744-8.871,24.398-17.743,28.834-22.179l0,0l0,0
		c-26.615,4.436-46.577,13.308-59.885,26.615c-6.654,6.653-11.089,13.308-11.089,17.743l0,0c11.089,4.437,24.397,6.654,35.487,6.654
		c6.653,0,13.308,0,19.962-2.218C441.372,2499.625,448.026,2497.407,454.679,2495.189L454.679,2495.189L454.679,2495.189"/>
	<path fill="#2DA34A" stroke="#2DA34A" stroke-miterlimit="10" d="M494.602,2477.446c-2.218,0-4.436-2.219-4.436-6.654
		c0-2.218,2.218-4.436,4.436-4.436c17.744-4.437,26.615-11.09,33.27-15.526l0,0l0,0c-26.615-2.218-48.795,2.219-64.32,13.309
		c-8.872,4.436-13.308,11.089-15.525,15.525l0,0c17.743,13.308,39.923,15.525,57.666,15.525c4.436,0,11.09,0,13.309,0l0,0l0,0
		C510.127,2481.882,494.602,2477.446,494.602,2477.446"/>
	<path fill="#2DA34A" stroke="#2DA34A" stroke-miterlimit="10" d="M561.141,2481.882c-2.219-2.218-2.219-4.436-2.219-6.654
		c0-2.218,2.219-4.436,4.437-4.436c17.743-2.218,28.833-6.653,35.487-8.872l0,0l0,0c-24.397-6.653-46.577-6.653-64.32,0
		c-8.872,4.437-15.525,8.872-17.744,11.09l0,0c22.18,26.615,51.014,31.052,66.539,31.052l0,0l0,0l0,0
		C574.449,2490.754,563.359,2481.882,561.141,2481.882"/>
	<path fill="#2DA34A" stroke="#2DA34A" stroke-miterlimit="10" d="M729.706,2566.164L729.706,2566.164
		c0-6.654,0-17.744-4.437-28.834c-6.653-19.961-24.397-33.269-46.577-42.141l0,0l0,0c2.219,8.872,8.872,22.18,17.744,35.487
		c2.218,2.218,2.218,4.436,0,6.653c-2.219,2.219-4.436,2.219-6.654,2.219c0,0-13.308-4.437-28.833,0l0,0l0,0
		c15.525,8.871,42.142,26.615,66.538,26.615H729.706"/>
	<path fill="#2DA34A" stroke="#2DA34A" stroke-miterlimit="10" d="M676.474,2524.022L676.474,2524.022
		c-13.308-13.308-28.833-19.961-48.795-19.961c-6.653,0-13.308,2.218-19.962,4.436l0,0l0,0
		c15.526,11.09,31.052,17.744,48.795,17.744h2.219C665.384,2528.459,672.039,2526.241,676.474,2524.022L676.474,2524.022"/>
	<path fill="#2DA34A" stroke="#2DA34A" stroke-miterlimit="10" d="M581.102,2481.882L581.102,2481.882
		c11.09,6.653,22.18,11.09,35.488,11.09c6.653,0,11.089,0,17.743-2.218c11.089-2.219,19.962-4.437,26.615-6.654l0,0l0,0
		c-8.872-4.436-19.962-8.872-28.833-11.09c-11.09-2.218-19.962-2.218-31.052,0C594.411,2475.228,587.756,2479.664,581.102,2481.882
		L581.102,2481.882"/>
</g>
<path fill="#0094D4" d="M878.307,2998.664c0-68.757-11.09-133.077-31.051-195.18c-19.962-59.885-46.577-113.115-82.064-159.692
	c-35.486-46.577-75.41-82.064-119.77-106.462c-46.576-26.615-95.371-39.923-146.385-39.923c-51.012,0-99.807,13.308-146.384,39.923
	c-44.359,24.398-86.5,62.104-119.77,106.462c-35.487,46.577-62.103,99.808-82.064,159.692
	c-19.961,62.103-31.051,128.641-31.051,195.18H878.307z"/>
<polygon fill="#EE4023" points="499.039,2876.677 587.756,2876.677 623.244,2843.407 581.102,2670.407 538.961,2623.83 
	487.949,2614.959 425.846,2643.792 403.667,2685.933 423.627,2716.984 385.923,2787.959 374.833,2856.715 394.795,2874.459 "/>
<path fill="#231F20" d="M474.641,2444.177L474.641,2444.177L474.641,2444.177z"/>
<path fill="#231F20" d="M399.231,2455.267L399.231,2455.267z"/>
<path fill="#231F20" d="M399.231,2455.267L399.231,2455.267L399.231,2455.267z"/>
<path fill="#FFFFFF" d="M596.627,3606.382c-35.486-6.654-62.102-26.615-73.191-37.705c-2.219,2.218-2.219,2.218-4.436,4.436
	c2.217,11.09,13.307,35.487,57.666,46.577C585.539,3615.254,592.192,3610.817,596.627,3606.382"/>
<path fill="#FFFFFF" d="M474.641,3568.677c-11.09,11.09-37.705,31.051-73.192,37.705c4.437,4.436,11.09,8.872,19.962,13.308
	c44.358-11.09,55.448-37.705,57.666-46.577C476.859,3570.895,474.641,3568.677,474.641,3568.677"/>
<path fill="#231F20" d="M947.064,3094.035c0-2.218,0-4.436-2.218-6.653c-2.219-2.218-4.436-2.218-4.436-2.218
	c2.217-2.218,2.217-6.654,4.436-11.09c6.654-15.525,8.871-33.27,8.871-53.23c0-2.219-2.217-4.437-4.436-6.654
	c-2.218,0-4.436-2.218-4.436-2.218c2.218-2.218,2.218-6.654,2.218-8.872c4.437-15.525,4.437-33.27,4.437-53.23
	c0-2.218-2.219-4.437-4.437-6.654c-2.218,0-4.437-2.218-4.437,0c0-4.436,2.219-6.653,2.219-11.09
	c2.218-15.525,2.218-33.269-2.219-53.23c0-2.218-2.217-4.436-4.436-6.654c-2.218,0-2.218,0-4.436,0c0-2.218,0-4.436,2.218-8.871
	c2.218-15.525,0-33.27-4.437-53.231c0-2.218-2.217-4.436-4.436-4.436c-2.218,0-4.436,0-6.653,0l0,0c0-4.436,0-8.872,0-13.308
	c0-15.525-4.437-33.27-11.09-51.013c0-2.218-2.218-4.437-6.653-4.437c-2.219,0-4.437,0-6.654,2.219c0-4.437,0-8.872,0-11.09
	c-2.219-15.525-8.872-33.27-17.744-51.013c-2.218-2.218-4.436-4.437-6.653-4.437s-4.437,0-6.653,2.219
	c0-4.437-2.219-6.654-2.219-11.09c-4.436-15.526-11.09-31.052-22.18-48.795c-2.218-2.219-4.436-4.437-6.653-4.437
	s-4.437,2.218-6.653,4.437c-2.219-4.437-2.219-8.872-4.437-13.308c-6.653-15.526-17.743-28.834-31.052-44.359
	c-2.217-2.218-4.436-2.218-6.653-2.218s-4.437,2.218-4.437,2.218c-2.217-4.436-4.436-8.872-6.653-13.308
	c-8.872-13.308-19.962-26.615-35.487-37.705c-2.218-2.218-4.436-2.218-6.654-2.218c-2.217,0-4.436,2.218-4.436,4.436
	c-11.09-13.308-24.396-24.397-42.141-28.833c2.218,0,6.654,0,8.871,0c22.18,2.218,35.488-2.219,37.705-4.437
	c4.437-2.218,6.654-6.653,6.654-11.089c0-4.437-4.436-8.872-8.871-8.872c-24.398-2.218-31.052-6.654-42.142-11.09
	c-2.218-2.218-4.437-2.218-6.653-4.437l55.448-8.871c4.437,0,8.872-4.437,8.872-8.872s-4.436-8.872-8.872-8.872l-53.23-8.871
	c6.653-2.219,13.308-4.437,22.179-6.654c19.962-6.653,33.27-17.743,33.27-17.743c4.436-2.218,4.436-8.872,2.219-13.308
	c-2.219-4.437-6.654-6.654-11.09-4.437c-22.18,8.872-31.052,6.654-44.359,4.437c-2.219,0-4.436,0-6.654,0l46.577-28.834
	c4.437-2.218,6.653-6.653,4.437-11.09c-6.654,4.437-11.09,2.219-17.744,2.219l-53.23,13.308c6.653-2.218,11.09-6.654,17.743-13.308
	c15.526-13.309,24.397-28.834,24.397-28.834c2.219-4.436,2.219-8.871-2.218-13.308c-4.437-2.218-8.872-2.218-13.308,0
	c-17.744,15.526-26.615,17.744-39.924,22.18c-2.217,0-4.436,2.218-6.653,2.218l33.27-44.358c2.218-4.437,2.218-8.872,0-13.308
	c-4.437-4.437-8.872-4.437-13.308,0l-44.359,33.269c2.219-6.653,6.654-13.308,11.09-19.961c8.872-19.962,11.09-35.487,11.09-35.487
	c0-4.437-2.218-8.872-6.654-11.09c-4.436-2.218-8.871,0-11.09,4.436c-8.871,22.18-17.743,26.615-26.615,35.487
	c-2.218,2.218-4.436,2.218-4.436,4.436l13.308-53.23c2.218-4.436-2.218-8.872-6.653-11.09c-4.437-2.218-8.872,0-11.09,4.437
	l-28.834,46.576c0-6.653,2.219-13.308,2.219-22.179c-2.219-17.744-6.654-33.27-6.654-33.27c-2.219-4.437-6.654-6.654-11.09-6.654
	s-8.871,4.437-8.871,8.872c0,24.397-6.654,31.052-11.09,42.141c0,2.219-2.219,4.437-2.219,6.654l-8.871-53.23
	c0-4.437-4.437-8.872-8.872-8.872l0,0c-4.437,0-8.872,4.436-8.872,8.872l-6.654,53.23c-2.217-6.654-4.436-13.308-6.653-19.962
	c-6.653-19.961-17.743-33.269-17.743-33.269c-2.219-4.437-8.872-4.437-13.309-2.219c-4.436,2.219-6.653,6.654-4.436,11.09
	c8.872,22.18,6.654,31.052,4.436,44.359c0,2.218,0,4.436,0,6.654l-28.833-46.577c-2.218-4.437-6.653-6.654-11.089-4.437
	c-4.437,2.219-6.654,6.654-6.654,11.09l13.308,53.231c-4.437-4.437-8.872-11.09-13.308-15.526
	c-13.308-15.525-28.833-24.397-28.833-24.397c-4.436-2.218-8.872-2.218-13.308,2.219c-2.218,4.436-2.218,8.871,0,13.308
	c15.525,17.743,17.744,26.615,22.179,39.923c0,2.218,2.218,4.436,2.218,6.653l-44.359-33.269c-4.436-2.218-8.872-2.218-13.308,0
	c-4.436,4.436-4.436,8.871,0,13.308l33.27,44.358c-6.654-2.218-13.308-6.653-19.961-11.09
	c-19.962-8.871-35.487-11.089-35.487-11.089c-4.436,0-8.872,2.218-11.09,6.653s0,8.872,4.436,11.09
	c22.179,8.872,26.615,17.743,35.487,26.615c2.218,2.218,2.218,4.437,4.436,6.654l-51.013-13.308
	c-4.436-2.219-8.872,2.218-11.09,6.653c-2.218,4.437,0,8.872,4.436,11.09l46.577,28.833c-6.654,0-13.308-2.218-22.179-2.218
	c-22.18-2.218-35.487,2.218-37.705,4.437c-4.436,2.218-6.654,6.653-6.654,11.089c0,4.437,4.436,8.872,8.872,8.872
	c24.397,0,31.051,6.654,42.141,11.09c2.218,0,4.436,2.218,6.654,4.436l-55.449,8.872c-4.436,0-8.872,4.437-8.872,8.872
	s4.436,8.871,8.872,8.871l55.449,8.872c-6.654,2.218-13.308,4.437-22.18,6.654c-19.961,6.653-33.269,17.743-33.269,17.743
	c-4.436,2.218-4.436,8.872-2.218,13.308c2.218,4.437,6.654,6.654,11.09,4.437c13.308-4.437,22.18-6.654,28.833-6.654
	c-11.09,11.09-19.961,17.744-24.397,24.397c-2.218,2.218-4.436,6.654-6.654,8.872c0-2.218-2.218-2.218-4.436-2.218
	c-2.218,0-4.436,0-6.654,2.218c-15.525,11.09-28.833,24.397-37.705,37.705c-2.218,4.436-4.436,8.872-6.654,13.308
	c-2.218-2.218-2.218-2.218-4.436-4.436c-2.218,0-4.436,0-6.654,2.218c-13.308,13.308-24.397,28.833-31.051,44.358
	c-2.218,4.437-2.218,8.872-4.436,11.09c-2.218-2.218-2.218-2.218-4.436-2.218c-2.218,0-4.436,0-6.654,2.218
	c-11.09,15.526-19.962,31.052-24.397,46.577c-2.218,4.436-2.218,8.872-2.218,13.308c-2.218-2.218-4.436-2.218-6.654-2.218
	c-2.218,0-4.436,2.218-6.654,4.436c-8.872,17.744-15.525,33.27-17.744,51.013c0,4.437,0,8.872,0,11.09
	c-2.218-2.218-4.436-2.218-6.654-2.218c-2.218,0-4.436,2.218-4.436,4.436c-6.654,17.744-11.09,35.487-11.09,51.014
	c0,4.436,0,8.871,0,11.089c-2.218-2.218-4.436-2.218-6.654,0c-2.218,0-4.436,2.219-4.436,4.437
	c-4.436,19.961-6.654,37.705-4.436,53.23c0,2.218,0,6.654,2.218,8.872c-2.218,0-2.218,0-4.436,0s-4.436,2.218-4.436,6.653
	c-4.436,19.962-4.436,37.705-2.218,53.231c0,4.436,2.218,8.872,2.218,11.09h-2.218c-2.218,2.218-4.436,4.436-4.436,6.653
	c-2.218,19.962-2.218,37.705,2.218,53.23c0,4.437,2.218,6.654,2.218,11.09c-2.218,0-4.436,0-4.436,2.219c2.218-2.219,0,0,0,2.218
	c0,19.961,2.218,37.705,6.654,53.23c2.218,4.436,2.218,8.872,4.436,13.308l0,0c-2.218,0-4.436,0-6.654,2.218
	s-2.218,4.437-2.218,6.654c2.218,19.961,8.872,35.487,15.525,51.013c2.218,0,4.436,4.436,4.436,6.653c-2.218,0-2.218,0-4.436,2.218
	c-2.218,2.219-2.218,4.437-2.218,6.654c4.436,19.962,11.089,35.487,19.961,48.795c2.218,2.218,4.436,6.654,6.654,8.872
	c-2.218,0-4.436,2.218-4.436,2.218c-2.218,2.218-2.218,4.436,0,6.654c6.654,17.743,15.526,33.269,26.616,46.576
	c2.218,4.437,4.436,6.654,6.654,11.09c-2.218,0-4.436,2.218-4.436,4.436c-2.218,2.219-2.218,4.437,0,6.654
	c8.872,17.744,19.961,31.052,31.051,44.359c2.218,2.218,4.436,4.436,6.654,6.653c-2.218,0-2.218,2.218-4.436,4.437
	c0,2.218,0,4.436,0,6.653c11.09,15.525,22.18,28.833,35.487,39.923c4.436,2.218,8.872,6.654,11.09,8.872h-2.218
	c-2.218,0-4.436,2.218-4.436,4.436s0,4.437,2.218,6.654c13.308,13.308,26.615,24.397,42.141,33.27
	c11.09,6.653,22.18,11.089,33.269,13.308c8.872,2.218,19.961,2.218,26.616,0c0,0,0,0,2.218,0
	c24.397,17.743,48.795,31.051,75.41,42.141c22.18,8.872,44.359,15.525,66.539,22.18c4.436,0,8.871,2.218,13.307,2.218
	c-8.871-4.436-4.436-8.872-11.09-15.525c-2.217-2.218-15.525-4.437-17.743-4.437c-15.525-4.436-31.051-8.871-46.577-15.525
	c-24.397-11.09-48.795-24.397-73.192-39.923l0,0c0-8.872,0-15.525-2.218-24.397c15.525,13.308,31.051,24.397,46.577,33.27
	c22.18,13.308,44.359,22.179,68.757,28.833c0-2.218,8.871-2.218,8.871-4.437c0-4.436-6.653-8.871-4.436-11.089
	c-22.18-6.654-42.141-15.526-64.32-26.616c-44.359-24.396-84.282-59.884-117.551-104.243c-11.09-15.525-22.18-33.27-33.27-48.795
	c26.616-11.09,84.282-37.705,135.295-64.32c0,2.218,0,4.436,2.218,6.653c4.436,11.09,15.526,13.308,24.397,15.526
	c2.218,0,6.654,0,8.872,0c2.218,8.871,11.09,13.308,22.179,17.743c4.436,2.218,8.872,2.218,11.09,2.218
	c2.218,4.437,4.436,8.872,8.872,11.09c11.089,6.654,24.397,6.654,31.052,4.437c4.436,4.436,11.089,8.871,17.742,11.089
	c2.219,0,4.437,0,6.654,0c4.436,0,11.09-2.218,15.525-2.218v90.936c0,6.654,4.437,11.09,11.09,11.09
	c6.654,0,11.09-4.436,11.09-11.09v-95.371c11.09,2.218,22.18,0,28.834-2.218c4.436-2.218,8.871-4.437,13.307-6.654
	c11.09,2.218,22.18-2.218,31.052-8.872c2.218-2.218,4.437-6.653,6.653-8.871c15.526,0,26.616-6.654,31.052-13.308
	c2.218-2.218,4.437-6.654,6.653-8.872c11.09,0,17.744-4.436,24.398-8.872c2.218-2.218,4.436-6.653,6.653-8.872
	c42.142,31.052,106.462,59.885,135.295,73.192c-8.872,15.526-19.962,31.052-31.052,46.577
	c-33.269,44.359-73.191,79.846-117.551,104.244c-19.961,11.089-42.141,19.961-64.32,26.615c2.218,2.218-4.436,6.653-2.218,11.09
	c0,2.218,6.653,4.436,6.653,4.436c24.397-6.654,46.577-15.525,68.757-28.833c17.743-8.872,33.269-22.18,48.795-33.27
	c-2.218,8.872-2.218,15.525-2.218,24.397c0,0,0,0,0,2.218c-6.654,4.436-26.615,19.962-53.23,33.27
	c-19.963,11.09-42.142,17.743-64.321,24.397h-2.218c0,2.218-11.09,2.218-13.308,4.436c-6.653,8.872-6.653,13.308-15.526,15.525
	c11.09-2.218,24.398-4.436,35.488-6.653c22.179-6.654,44.358-13.308,66.538-24.397c28.833-13.308,48.795-28.834,55.448-33.27
	c0,0,0,0,2.219,0c8.871,2.218,17.743,2.218,26.615,0c11.09-2.218,22.18-6.653,33.27-13.308c13.307-8.872,26.615-19.962,42.141-33.27
	c2.218-2.218,2.218-4.436,2.218-6.653s-2.218-4.436-4.437-4.436c0,0,0,0-2.217,0c4.436-2.219,8.871-4.437,13.307-8.872
	c13.309-11.09,24.398-24.397,35.487-39.923c2.218-2.219,2.218-4.437,0-6.654c0-2.218-2.218-2.218-4.436-4.436
	c2.218-2.219,4.436-4.437,6.653-6.654c11.09-11.09,22.18-26.615,31.052-44.359c2.218-2.218,0-4.436,0-6.653
	c-2.218-2.218-2.218-4.436-6.653-4.436c2.217-2.218,4.436-6.654,8.871-8.872c11.09-13.308,19.962-28.833,26.615-46.577
	c0-2.218,0-4.436,0-6.653c-2.218-2.219-4.436-2.219-6.653-4.437l0,0c2.218-2.218,4.436-6.653,6.653-8.872
	c8.872-13.307,15.525-31.051,19.962-48.795c0-2.218,0-4.436-2.218-6.653s-4.436-2.218-6.654-2.218
	c2.219-4.436,4.437-6.654,6.654-11.09C940.411,3129.522,944.846,3113.997,947.064,3094.035 M938.192,3034.151L938.192,3034.151
	c0,13.308-2.218,26.615-6.653,35.486c-4.437,11.09-8.872,19.962-15.526,28.834c-8.871,8.871-15.525,13.308-19.961,15.525l0,0l0,0
	c-11.09-15.525-15.525-33.27-15.525-53.23c0-6.654,0-13.308,2.217-19.962l0,0l0,0c8.873,11.09,15.526,26.615,15.526,26.615
	c0,2.218,2.218,4.437,4.437,4.437c2.217,0,4.436-2.219,4.436-2.219C918.231,3051.895,929.321,3038.587,938.192,3034.151
	L938.192,3034.151 M938.192,2965.395L938.192,2965.395L938.192,2965.395c0,13.308,0,26.615-2.218,37.705s-6.653,22.18-13.308,28.833
	c-6.654,11.09-15.525,15.526-17.744,17.744l0,0l0,0c-17.743-22.18-19.961-53.231-19.961-68.757l0,0l0,0
	c11.09,11.09,17.744,24.397,17.744,24.397c0,2.218,2.217,4.437,4.436,2.218c2.218,0,4.436-2.218,4.436-4.436
	C918.231,2983.138,929.321,2972.049,938.192,2965.395 M929.321,2894.42L929.321,2894.42
	C931.539,2894.42,931.539,2894.42,929.321,2894.42c2.218,13.308,2.218,26.615,0,37.705c-2.219,11.09-4.437,22.18-11.09,31.052
	c-6.654,11.09-13.309,17.743-15.525,19.962l0,0l0,0c-17.744-15.526-24.398-48.795-26.616-66.539l0,0l0,0
	c11.09,8.872,17.743,22.18,17.743,22.18c2.219,2.218,4.437,2.218,6.654,2.218c2.219,0,4.436-2.218,4.436-4.436
	C913.795,2914.382,922.667,2901.074,929.321,2894.42 M918.231,2827.882L918.231,2827.882
	C920.449,2827.882,920.449,2827.882,918.231,2827.882c2.218,13.308,4.436,26.615,2.218,37.705s-4.437,22.18-8.872,31.052
	c-4.436,11.089-11.09,17.743-15.525,19.961l0,0l0,0c-15.525-13.308-22.18-33.27-26.615-46.577
	c-2.219-6.653-2.219-13.308-4.437-19.961l0,0l0,0c11.09,8.872,19.962,22.18,19.962,22.18c2.218,2.218,4.436,2.218,6.654,2.218
	c2.217,0,4.436-2.218,4.436-4.437C902.706,2850.062,911.577,2834.535,918.231,2827.882 M385.923,2832.317v-2.218
	c8.872-46.577,26.616-77.628,39.923-95.372c11.09-13.308,19.961-22.179,24.397-26.615c2.218,0,2.218-2.218,4.436-4.436
	c4.437-4.437,4.437-11.09,2.218-15.525c-4.436-4.437-11.09-6.654-15.525-2.219c0,0-2.218,2.219-4.436,4.437
	c-11.09,6.653-15.525,4.436-17.744,4.436c-2.218-2.218-4.436-6.653-4.436-11.09c2.218-8.871,13.308-22.18,17.744-26.615l0,0
	c22.179-26.615,57.666-26.615,59.884-26.615l0,0c0,0,11.09,0,24.397,4.436c19.962,6.654,33.27,19.962,44.359,39.924
	c13.308,26.615,24.397,55.448,33.27,84.281c-19.962-6.653-35.488-19.961-35.488-19.961c-4.436-4.437-11.09-2.219-15.525,2.218
	c-2.218,2.218-2.218,4.436-2.218,8.872c0,2.218,2.218,4.436,4.437,6.653c0,0,26.615,22.18,55.448,28.833
	c2.218,11.09,4.437,19.962,6.653,33.27c-8.871-4.436-19.961-8.872-31.051-11.09c-6.654-2.218-13.308-2.218-17.744-4.436
	c-19.961-8.872-37.705-22.18-37.705-22.18c-4.436-8.872-11.09-8.872-13.307-4.436c-4.437,4.436-2.219,11.09,2.217,15.525
	c0,0,19.963,15.525,44.359,24.397c6.654,2.218,13.309,4.436,19.962,6.654c26.615,6.653,37.705,11.089,37.705,24.397
	c0,2.218-2.218,4.436-2.218,4.436c-8.872,8.872-26.615,8.872-33.27,8.872l0,0h-24.397c-4.437,0-28.833-2.218-51.013-15.526
	C441.372,2812.356,416.974,2819.01,385.923,2832.317 M481.295,2863.369h-75.41c-6.654,0-13.309-2.218-15.526-6.654l-2.218-2.218
	C419.192,2841.189,434.717,2836.754,481.295,2863.369 M510.127,2998.664v-113.115h37.706l0,0l0,0h22.179h2.219
	c2.218,0,8.871,0,13.308-2.219c13.308-2.218,24.397-6.653,31.052-15.525c2.217-2.218,6.653-8.872,8.871-13.308v-2.218
	c2.218-4.436,2.218-11.09,0-19.962v-2.218c-6.654-44.358-15.525-102.025-48.795-168.563c-28.833-57.667-84.281-55.449-88.718-53.231
	c-4.437,0-46.577,2.219-73.192,33.27c-2.218,2.218-19.961,19.962-22.18,37.705c-2.218,13.308,2.218,26.615,13.309,33.27
	c2.217,0,4.436,2.218,6.653,2.218c-17.744,22.18-37.705,57.667-48.795,110.897c-2.218,8.872-2.218,17.743-2.218,24.397v2.218
	c2.218,8.872,4.436,15.525,8.872,19.962c4.436,6.653,15.525,13.308,33.269,13.308h79.846v113.115v68.756
	c-22.179,0-37.705,6.654-57.666,22.18c-28.834,19.962-124.205,37.705-283.897,55.449c-11.09-46.577-17.744-97.59-17.744-146.385
	c0-66.539,8.872-130.859,28.833-192.962c17.744-57.666,46.577-110.897,79.846-157.474c33.269-44.359,73.192-79.847,117.551-104.244
	c46.576-24.397,93.154-37.705,144.166-37.705c48.795,0,97.59,13.308,144.167,37.705c44.358,24.397,84.282,59.885,117.552,104.244
	c33.269,44.358,62.102,97.589,79.846,157.474C856.127,2865.587,865,2932.125,865,2998.664c0,51.013-6.653,102.025-17.743,148.603
	c-93.154-4.437-208.487-42.142-210.705-42.142c-8.872-2.218-15.525-4.436-22.18-8.871c-24.397-8.872-42.141-15.526-62.103-13.309
	c-2.218,0-2.218,0-4.436,0c-11.09-6.653-22.18-8.871-37.706-13.307V2998.664z M663.167,2484.1
	c-6.654,2.218-15.525,4.436-26.615,6.654c-6.654,2.218-13.308,2.218-17.744,2.218c-13.307,0-26.615-4.437-35.486-11.09l0,0l0,0
	c4.436-2.218,11.09-6.654,22.18-8.872c11.089-2.218,19.961-2.218,31.051,0C643.206,2475.228,652.077,2477.446,663.167,2484.1
	L663.167,2484.1L663.167,2484.1 M676.474,2524.022L676.474,2524.022L676.474,2524.022c-4.436,2.219-11.09,4.437-17.743,4.437h-2.219
	c-17.743,0-33.269-6.654-48.795-17.744l0,0l0,0c6.654-2.218,13.309-4.436,19.962-4.436
	C647.641,2504.062,663.167,2510.715,676.474,2524.022 M598.846,2461.92c-6.654,2.219-17.744,6.654-35.487,8.872
	c-2.218,0-4.437,2.218-4.437,4.436c0,2.219,0,4.437,2.219,6.654c0,0,13.308,8.872,22.18,22.18l0,0l0,0l0,0
	c-15.525,0-46.577-4.437-66.539-31.052l0,0c4.436-2.218,8.872-8.871,17.744-11.09
	C552.269,2455.267,574.449,2455.267,598.846,2461.92L598.846,2461.92L598.846,2461.92 M527.872,2450.83
	c-6.654,4.437-15.525,11.09-33.27,15.526c-2.218,0-4.436,2.218-4.436,4.436s2.218,4.436,4.436,6.654c0,0,13.309,4.436,26.615,15.525
	l0,0l0,0c-4.436,0-8.871,0-13.307,0c-17.744,0-39.924-2.218-57.667-15.525l0,0c2.218-4.437,6.653-8.872,15.525-15.526
	C479.077,2453.049,501.256,2448.612,527.872,2450.83C527.872,2448.612,527.872,2448.612,527.872,2450.83L527.872,2450.83
	 M454.679,2450.83c-4.436,6.654-13.308,13.309-28.833,22.18c-2.219,0-4.436,4.437-2.219,6.654c0,2.218,2.219,4.436,4.437,4.436
	c0,0,15.526,2.218,28.833,8.872l0,0l0,0c-6.653,2.218-13.307,4.436-19.961,4.436s-13.309,2.218-19.962,2.218
	c-11.089,0-22.179-2.218-35.487-6.653l0,0c2.218-4.437,4.436-11.09,11.089-17.743
	C405.884,2464.139,428.064,2455.267,454.679,2450.83L454.679,2450.83L454.679,2450.83 M359.308,2497.407
	c-2.218,2.218-2.218,4.437-2.218,6.654s2.218,4.436,4.436,4.436l0,0c0,0,6.654,0,15.526,0c6.654,0,11.09,2.218,15.525,2.218l0,0l0,0
	c-6.653,2.219-11.089,6.654-17.743,8.872c-13.308,4.436-24.397,6.654-35.487,6.654c-8.872,0-15.526-2.219-19.961-2.219l0,0
	c2.218-11.089,13.308-42.141,64.32-59.884l0,0l0,0C381.487,2470.792,374.833,2484.1,359.308,2497.407 M882.744,2803.484
	c2.218-19.962,8.872-35.487,13.308-44.359l0,0l0,0c4.436,13.308,6.654,24.397,6.654,35.487s0,22.18-4.437,31.052
	c-4.437,11.09-8.872,19.961-11.09,22.18l0,0l0,0c-15.525-8.872-26.615-24.397-33.269-42.142c-2.219-6.653-4.437-13.308-6.654-17.743
	l0,0l0,0c13.308,6.653,24.397,19.961,24.397,19.961c2.218,2.219,4.436,2.219,6.653,2.219
	C882.744,2807.92,882.744,2805.702,882.744,2803.484 M860.564,2741.382c0-19.962,4.437-35.487,8.872-44.359l0,0l0,0
	c4.436,11.09,8.871,24.397,11.09,35.487c2.218,11.09,2.218,22.18,0,33.27c-2.219,11.09-6.654,19.961-8.872,22.18l0,0l0,0
	c-15.526-6.654-28.833-19.962-37.705-39.924c-2.218-6.653-4.437-11.089-6.653-17.743l0,0l0,0
	c13.307,6.654,24.396,15.525,24.396,17.743c2.219,2.219,4.436,2.219,6.654,0C858.346,2745.817,860.564,2743.6,860.564,2741.382
	 M829.512,2685.933L829.512,2685.933c2.219-2.218,2.219-4.436,2.219-6.653c-2.219-19.962,0-35.487,4.436-46.577l0,0l0,0
	c6.654,11.09,11.09,22.18,15.525,33.27c2.219,11.09,4.436,22.18,2.219,33.27c-2.219,11.089-4.437,19.961-6.654,24.397l0,0l0,0
	c-17.744-6.654-31.051-17.744-42.141-35.487c-4.437-4.437-6.654-11.09-8.872-17.744l0,0l0,0
	c15.525,4.437,26.615,13.308,28.833,13.308C822.859,2688.151,827.295,2688.151,829.512,2685.933 M785.154,2630.484
	c2.218,2.218,4.437,2.218,6.653,0c2.219-2.218,2.219-4.436,2.219-6.654c-6.654-17.743-4.437-35.486-2.219-46.576l0,0l0,0
	c8.872,11.09,15.526,19.961,19.962,31.051c4.437,11.09,6.653,22.18,8.872,31.052c0,11.09-2.219,19.961-2.219,24.397l0,0l0,0
	c-17.742-2.219-33.269-13.308-46.576-28.834c-4.436-4.436-8.872-11.09-13.308-15.525l0,0l0,0
	C771.846,2621.612,785.154,2630.484,785.154,2630.484 M743.012,2581.689c2.219,0,4.437,0,6.654-2.218s2.218-4.437,0-6.654
	c-8.872-17.743-11.09-33.269-11.09-44.358l0,0l0,0c8.872,8.871,17.744,17.743,24.397,26.615s11.09,19.961,13.308,28.833
	c2.218,11.09,2.218,22.18,2.218,24.397l0,0l0,0c-19.962,0-37.705-11.09-48.794-19.961c-6.654-4.437-11.09-8.872-15.526-15.526l0,0
	l0,0h2.218C729.706,2577.254,743.012,2581.689,743.012,2581.689 M725.269,2537.33c4.437,11.09,4.437,22.18,4.437,28.834l0,0h-2.219
	c-24.396,0-51.013-15.525-66.538-26.615l0,0l0,0c15.525-2.219,28.833,0,28.833,0c2.219,0,4.436,0,6.654-2.219
	c2.218-2.218,2.218-4.436,0-6.653c-8.872-11.09-15.525-24.397-17.744-35.487l0,0l0,0
	C700.872,2504.062,718.616,2517.369,725.269,2537.33 M297.205,2468.574c2.218,0,2.218,0,4.436-2.218
	c13.308-4.437,26.615-8.872,33.269-8.872c15.526-4.436,26.615-11.09,26.615-11.09c2.218,0,2.218-2.218,2.218-4.436
	s-2.218-2.218-2.218-2.218l-68.756-8.872l68.756-11.09c2.218,0,4.436-2.218,4.436-4.436c0-2.219-2.218-4.437-4.436-4.437
	c0,0-15.525-2.218-31.051-8.871c-4.436-2.219-8.872-4.437-11.089-6.654c-6.654-2.218-11.09-6.653-19.962-8.872
	c2.218,0,2.218,0,4.436,0c15.526,0,28.833,2.219,35.487,4.437c15.525,2.218,28.833,0,28.833,0c2.218,0,2.218-2.218,2.218-2.218
	c0-2.219,0-2.219-2.218-4.437l-59.884-35.487l66.539,17.744c2.218,0,4.436,0,4.436-2.219c0-2.218,0-4.436-2.218-4.436
	c0,0-13.308-6.653-24.397-19.961c-2.218-4.437-6.654-6.654-8.872-11.09c-4.436-4.437-8.872-11.09-15.526-15.526
	c2.218,0,2.218,0,2.218,2.219c13.308,6.653,24.397,13.308,31.052,17.743c13.308,8.872,26.615,11.09,26.615,11.09
	c2.218,0,2.218,0,4.436-2.218c0-2.218,0-2.218,0-4.437l-42.141-55.448l55.449,39.923c2.217,2.218,4.436,0,4.436,0
	c2.218-2.218,2.218-4.436,0-4.436c0-2.218-8.872-13.308-15.526-28.834c-2.218-4.436-2.218-8.871-4.436-13.308
	c-2.218-6.653-4.436-13.308-6.654-19.961l2.218,2.218c8.872,11.09,17.743,22.18,22.179,26.615
	c8.873,13.308,17.744,19.962,19.962,19.962s2.218,0,4.437,0c2.218,0,2.218-2.218,2.218-4.437l-17.743-66.538l35.486,59.885
	c0,2.218,2.219,2.218,4.436,2.218c2.219,0,2.219-2.218,2.219-4.436c0,0-4.436-15.526-2.219-31.052c0-4.436,0-8.872,0-13.308
	c0-6.654,2.219-13.308,0-22.18c0,2.218,0,2.218,2.219,4.437c4.436,13.308,8.871,26.615,8.871,33.269
	c2.219,15.526,8.872,24.397,11.09,26.615c0,2.219,2.219,2.219,4.437,2.219c4.436,2.218,4.436,0,4.436-2.219l8.872-66.538
	l8.871,66.538c0,2.219,2.219,4.437,4.436,4.437c2.219,0,4.437-2.218,4.437-4.437c0,0,2.218-15.525,8.872-31.051
	c2.218-4.436,4.436-8.872,6.654-11.09c2.217-6.654,6.653-11.09,8.871-19.962c0,2.219,0,2.219,0,4.437
	c0,15.525-2.218,28.833-4.436,35.487c-2.219,15.525,0,28.833,0,28.833c0,2.218,2.218,2.218,2.218,2.218c2.218,0,2.218,0,4.436-2.218
	l35.487-59.885l-17.744,66.538c0,2.219,0,4.437,2.219,4.437c2.218,0,4.436,0,4.436-2.218c0-2.219,8.872-13.308,19.962-24.397
	c4.436-2.219,6.653-6.654,11.089-8.872c4.437-4.436,11.09-8.872,15.526-15.525c0,0,0,2.218-2.218,2.218
	c-6.654,13.308-13.309,24.397-17.744,31.051c-8.871,13.308-11.09,26.615-11.09,26.615c0,2.219,0,2.219,2.219,4.437
	c2.218,0,2.218,0,4.436,0l55.449-42.142l-39.924,55.449c-2.218,2.218,0,4.436,0,4.436c2.219,2.219,4.436,2.219,4.436,0
	c0,0,11.09-8.871,28.834-15.525c4.436-2.218,8.871-2.218,13.308-4.436c6.653-2.219,13.308-4.437,19.962-6.654l-2.219,2.218
	c-11.09,8.872-22.18,17.744-26.615,22.18c-13.308,8.872-19.961,19.962-19.961,19.962c0,2.218,0,2.218,0,4.436
	s2.218,2.218,4.436,2.218L692,2344.369l-59.885,35.487c-2.219,0-2.219,2.218-2.219,4.436s2.219,2.218,4.437,2.218
	s15.525-4.436,31.052-2.218c4.436,0,8.871,0,13.307,0c6.654,0,13.309,2.218,22.18,0c-2.218,0-2.218,0-4.436,2.218
	c-13.308,4.437-26.615,8.872-33.27,8.872c-15.525,4.436-26.615,11.09-26.615,11.09c-2.218,0-2.218,2.218-2.218,4.436
	s2.218,2.218,2.218,2.218l68.756,8.872l-66.538,17.744c-2.218,0-4.437,2.218-4.437,4.436s2.219,4.436,4.437,4.436
	s15.526,2.218,31.052,8.872c4.436,2.218,8.871,4.436,11.09,6.654c6.653,2.218,11.09,6.653,19.961,8.871c-2.218,0-2.218,0-4.436,0
	c-15.525,0-28.834-2.218-35.487-4.436h-2.218c-13.309-4.436-24.398-8.872-37.705-8.872l0,0c0-2.218-2.219-4.436-4.437-6.653
	c-17.743-6.654-35.487-8.872-51.013-8.872c-6.654,0-11.09,0-15.525,2.218v-2.218c-2.219-2.218-4.436-4.436-6.654-4.436
	c-19.961-2.219-37.705-2.219-53.23,0c-6.654,2.218-11.09,2.218-17.744,4.436c0-2.218,0-2.218-2.217-4.436
	c-2.219-2.219-4.437-2.219-6.654-2.219c-19.961,2.219-37.705,6.654-51.013,11.09c-4.437,2.218-6.654,4.437-11.09,4.437
	c0-2.219-2.218-4.437-2.218-4.437c-2.219-2.218-4.436-2.218-6.654-2.218c-19.961,4.436-35.487,13.308-48.795,22.18l0,0
	c-4.436,0-6.654,0-11.089,0c-2.218,0-13.308,0-13.308,0C310.513,2468.574,303.859,2466.356,297.205,2468.574 M314.949,2486.317
	L314.949,2486.317C314.949,2486.317,314.949,2488.535,314.949,2486.317c0,11.09-2.218,26.616-13.308,44.359
	c-2.218,2.218-2.218,4.436,0,6.653c2.218,2.219,4.436,2.219,6.654,2.219c0,0,15.525-2.219,28.833-2.219l0,0l0,0
	c-13.308,11.09-37.705,26.616-64.32,26.616h-2.218l0,0C268.372,2552.856,270.59,2519.587,314.949,2486.317 M221.795,2586.125
	c2.218-11.09,6.654-19.961,13.308-28.833s15.526-19.962,24.397-28.833l0,0l0,0c0,11.09-2.218,26.615-11.09,44.358
	c0,2.219,0,4.437,0,6.654c2.218,2.218,4.436,2.218,6.654,2.218c0,0,13.308-4.436,28.833-4.436l0,0l0,0
	c-6.654,4.436-11.09,11.09-17.744,15.525c-11.09,8.872-28.833,19.962-44.359,19.962h-2.218l0,0
	C219.577,2608.305,219.577,2599.434,221.795,2586.125 M206.269,2579.472L206.269,2579.472L206.269,2579.472
	c2.218,11.09,4.436,26.615-2.218,46.577c0,2.218,0,4.436,2.218,6.653c2.218,2.218,4.436,2.218,6.654,0
	c0,0,13.308-8.872,28.833-8.872l0,0l0,0c-11.09,15.526-31.051,39.924-59.885,44.359l0,0l0,0
	C177.436,2652.664,170.782,2619.395,206.269,2579.472 M146.385,2668.189c4.436-11.09,8.872-22.18,15.525-33.27l0,0l0,0
	c2.218,8.872,6.654,26.615,2.218,46.577c0,2.218,0,4.436,2.218,6.654c2.218,2.218,4.436,0,6.654,0c0,0,11.09-11.09,28.833-13.308
	l0,0l0,0c-2.218,4.436-6.654,11.089-11.09,17.743c-13.308,17.743-26.615,28.833-44.359,33.27l0,0l0,0
	c-2.218-2.219-4.436-11.09-6.654-24.397C141.949,2690.369,144.167,2679.279,146.385,2668.189 M113.115,2730.292
	c2.218-11.09,4.436-22.18,11.09-35.487l0,0l0,0l0,0c4.436,8.872,11.09,24.397,8.872,44.359c0,2.218,2.218,4.436,2.218,4.436
	c2.218,0,4.436,0,6.654,0c0,0,13.308-11.09,26.615-17.743l0,0l0,0c-2.218,6.653-4.436,11.09-6.654,17.743
	c-8.872,17.744-22.179,31.052-39.923,39.923l0,0l0,0c-2.218-4.436-6.654-11.09-8.872-22.179
	C113.115,2752.472,113.115,2741.382,113.115,2730.292 M97.59,2759.125L97.59,2759.125L97.59,2759.125
	c6.654,8.872,13.308,22.18,15.525,44.359c0,2.218,2.218,4.436,4.436,4.436s4.436,0,6.654-2.218c0,0,11.09-13.308,24.397-19.962l0,0
	l0,0c0,6.654-2.218,11.09-4.436,17.744c-6.654,19.962-17.744,35.487-35.487,44.359l0,0l0,0c-2.218-2.219-8.872-11.09-11.09-22.18
	c-4.436-8.872-4.436-19.962-4.436-31.052C90.936,2783.522,93.154,2772.433,97.59,2759.125 M77.628,2827.882
	C77.628,2825.664,77.628,2825.664,77.628,2827.882C77.628,2825.664,77.628,2825.664,77.628,2827.882
	c6.654,8.872,17.743,22.18,19.961,42.141c0,2.218,2.218,4.437,4.436,4.437c2.218,0,4.436,0,6.654-2.218
	c0,0,8.872-13.308,22.179-22.18l0,0l0,0c0,6.653-2.218,11.09-2.218,17.743c-4.436,19.962-13.308,35.487-28.833,48.795l0,0l0,0
	c-4.436-4.436-11.09-11.09-15.525-22.18c-4.436-8.871-6.654-19.961-8.872-31.051C73.192,2852.279,75.41,2838.972,77.628,2827.882
	 M66.539,2894.42L66.539,2894.42L66.539,2894.42c8.872,6.654,17.744,19.962,22.179,39.924c0,2.218,2.218,4.436,4.436,4.436
	s4.436,0,6.654-2.218c0,0,6.654-13.308,17.744-24.397l0,0l0,0c0,6.653,0,13.308-2.218,19.961
	c-4.436,19.962-11.09,37.705-24.397,48.795l0,0l0,0c-2.218-2.218-8.872-8.871-13.308-17.743c-4.436-8.872-8.872-19.962-11.09-31.052
	C64.32,2921.035,64.32,2907.728,66.539,2894.42 M59.885,2965.395C59.885,2965.395,62.103,2965.395,59.885,2965.395
	C62.103,2965.395,62.103,2965.395,59.885,2965.395c2.218,0,4.436,2.218,4.436,4.436c6.654,6.654,15.526,17.744,19.962,35.487
	c0,2.218,2.218,4.437,6.654,4.437c2.218,0,4.436-2.219,4.436-4.437c0,0,2.218-15.525,15.526-26.615l0,0l0,0
	c2.218,8.872,2.218,19.962,0,33.27c-2.218,15.525-8.872,28.833-19.961,39.923l0,0l0,0
	C82.064,3043.022,57.667,3018.625,59.885,2965.395 M57.667,3034.151L57.667,3034.151c2.218,2.218,4.436,2.218,4.436,4.436
	c6.654,6.653,17.744,17.743,24.397,33.27c0,2.218,2.218,4.436,4.436,4.436l0,0c2.218,0,4.436-2.218,4.436-4.436
	c0,0,6.654-15.526,15.526-26.616l0,0l0,0c2.218,15.526,4.436,42.142-15.526,73.192l0,0l0,0
	C86.5,3109.562,59.885,3089.6,57.667,3034.151L57.667,3034.151 M62.103,3105.125L62.103,3105.125L62.103,3105.125
	c11.09,4.437,24.397,13.308,35.487,31.052c2.218,2.218,4.436,2.218,6.654,2.218c2.218,0,4.436-2.218,4.436-4.436l0,0l0,0
	c0,0,4.436-17.744,11.089-31.052l0,0l0,0c2.218,6.654,4.436,11.09,6.654,17.743c4.436,19.962,0,37.705-8.872,55.449l0,0l0,0
	c-4.436-2.218-13.308-4.436-22.18-13.308c-8.872-6.654-15.525-15.525-19.961-26.615C68.756,3131.74,64.32,3118.433,62.103,3105.125
	 M77.628,3171.664L77.628,3171.664L77.628,3171.664c2.218,0,4.436,2.218,6.654,2.218c8.872,4.436,19.961,11.09,31.051,26.615
	c2.218,2.218,4.436,2.218,6.654,2.218c2.218,0,4.436-2.218,4.436-4.436c0,0,2.218-15.525,8.872-28.834l0,0l0,0
	c6.654,15.526,15.525,44.359,2.218,73.192l0,0l0,0C124.205,3238.202,93.154,3224.895,77.628,3171.664 M117.551,3271.472
	c-6.654-8.872-13.308-19.962-19.961-31.052l0,0l0,0c2.218,0,4.436,2.218,6.654,2.218c8.872,2.218,22.179,8.872,33.269,22.18
	c2.218,2.218,4.436,2.218,6.654,2.218c2.218,0,4.436-2.218,4.436-4.436c0,0,0-15.525,4.436-31.052l0,0l0,0
	c2.218,6.654,6.654,11.09,8.872,17.744c6.654,19.961,8.872,37.705,2.218,55.448l0,0l0,0c-4.436,0-13.308-2.218-24.397-8.871
	C133.077,3286.997,126.423,3280.344,117.551,3271.472 M128.641,3302.522L128.641,3302.522L128.641,3302.522
	c11.09,2.218,26.615,6.654,42.141,19.962c2.218,2.218,4.436,2.218,6.654,0c2.218-2.218,2.218-4.436,2.218-6.654
	c0,0-2.218-15.525,2.218-28.833l0,0l0,0c4.436,6.653,6.654,11.09,11.09,17.743c6.654,13.309,13.308,33.27,8.872,53.231l0,0l0,0
	c-4.436,0-13.308-2.218-24.397-6.654c-8.872-4.436-17.744-11.09-26.616-17.743C141.949,3324.702,135.295,3313.612,128.641,3302.522
	 M259.5,3417.855c0,0-6.654-13.307-6.654-28.833l0,0l0,0c13.308,11.09,35.487,35.487,33.269,66.539l0,0c-2.218,0-4.436,0-8.872,0
	c-4.436,0-8.872,0-13.308-2.218c-19.962-4.437-39.923-15.526-59.885-33.27l0,0l0,0c11.09-2.218,26.615-2.218,46.577,6.653
	c2.218,0,4.436,0,6.654-2.218C261.718,3422.292,261.718,3420.074,259.5,3417.855 M208.487,3375.715c2.218,2.218,4.436,2.218,6.654,0
	c2.218-2.218,2.218-4.436,2.218-6.653c0,0-4.436-13.308-2.218-28.834l0,0l0,0c11.09,13.308,28.833,39.923,26.615,66.539l0,0h-2.218
	c-4.436,0-13.308,0-22.18-4.437c-8.872-2.218-19.961-8.871-28.833-15.525c-8.872-6.654-17.743-15.525-24.397-26.615l0,0l0,0
	C175.218,3362.407,190.744,3364.625,208.487,3375.715 M432.5,3224.895c-2.219,2.218-4.437,2.218-4.437,4.436
	c-13.308,8.872-19.962,17.744-22.18,26.615c-2.218,0-2.218,0-4.436-2.218c-8.872-2.218-8.872-8.871-11.09-8.871
	c0-4.437,2.218-8.872,8.872-15.526c8.871-8.871,15.525-11.09,22.18-11.09c2.217,0,4.436,0,6.653,2.219
	C430.282,3220.459,432.5,3222.677,432.5,3224.895L432.5,3224.895 M443.59,3273.689c-4.437,0-13.309,2.218-19.963-2.218
	c-2.217,0-2.217-2.218-2.217-4.437c0-8.871,8.871-15.525,15.525-19.961c8.871-6.654,15.525-11.09,22.18-11.09
	c2.218,0,4.436,0,6.653,2.218s2.218,2.218,2.218,4.436s-4.436,6.654-6.653,8.872C454.679,3258.164,448.026,3264.817,443.59,3273.689
	 M492.385,3275.907c-4.437,2.218-15.526,11.09-24.398,8.872c-2.218,0-4.436,0-6.653-2.218c4.436-8.872,13.308-15.526,22.179-19.962
	c11.09-6.654,15.526-2.218,15.526-2.218c2.218,2.218,2.218,4.436,2.218,4.436C501.256,3267.035,496.821,3273.689,492.385,3275.907
	C494.602,3273.689,494.602,3273.689,492.385,3275.907 M390.359,3211.587c-2.218,2.218-2.218,2.218-4.436,4.436
	c-6.654,4.437-11.089,11.09-13.308,19.962c-2.218,0-2.218,0-4.436,0c-6.654,0-8.872-2.218-11.089-4.436c0,0-2.218-4.437,2.218-8.872
	c4.436-6.654,15.526-13.308,24.397-13.308h2.218l0,0C388.141,3211.587,390.359,3211.587,390.359,3211.587 M636.551,3224.895
	c-2.218,2.218-6.654,4.436-13.308,4.436c-8.872-11.09-28.833-35.486-55.448-48.795c-2.219-2.218-4.437-2.218-6.654,0
	c-2.219,0-4.436,2.219-4.436,4.437c-2.219,2.218-2.219,4.436,0,6.653c0,2.219,2.217,4.437,4.436,4.437
	c22.18,11.09,39.923,33.269,48.795,42.141c0,2.218-2.219,2.218-2.219,4.437c-4.436,4.436-8.871,6.653-15.525,6.653
	c-2.218-4.436-6.653-11.09-13.308-17.743c-8.872-8.872-24.397-19.962-24.397-22.18c-2.218-2.218-4.436-2.218-6.653-2.218
	s-4.437,2.218-6.654,4.436s-2.218,4.436-2.218,6.654c0,2.218,2.218,4.436,4.436,6.653c4.437,2.218,15.525,11.09,22.18,17.744
	c6.654,6.653,8.872,11.089,8.872,13.307c0,2.219-2.218,4.437-4.437,6.654c-4.436,2.218-6.653,4.436-13.307,4.436
	c-2.219-4.436-8.872-15.525-17.744-26.615c-4.436-4.436-8.871-4.436-13.308,0c-2.218,2.218-2.218,4.437-2.218,6.654
	s0,4.436,2.218,6.653c6.653,6.654,11.09,15.526,13.308,19.962c-2.218,0-2.218,2.218-4.436,2.218
	c-4.436,2.218-11.09,2.218-15.525,2.218c2.217-4.436,4.436-6.653,4.436-11.09c0-4.436,0-13.308-8.872-22.179
	c-4.437-4.437-13.308-8.872-22.179-6.654c0-6.653-4.437-11.09-8.873-15.525c-8.871-6.654-19.961-8.872-31.051-6.654l0,0
	c-2.218-4.436-6.654-11.09-15.525-15.525c-8.872-4.436-17.744-4.436-26.615-2.218c-8.872-6.654-17.744-8.872-19.962-8.872
	c-13.308-2.218-28.833,4.437-39.923,15.525c-55.449,28.834-124.205,59.885-153.039,73.192
	c-15.526-28.833-28.833-57.666-37.705-90.936c-4.436-6.654-6.654-15.525-8.872-24.397c79.846-8.872,144.167-17.743,192.961-28.833
	c48.795-8.872,82.064-19.962,97.59-31.052c17.744-13.308,31.051-19.962,48.795-17.743c4.436,0,8.872,0,11.09,2.218
	c-4.436,2.218-6.654,2.218-8.871,4.436c-6.654,4.437-11.09,8.872-15.526,13.308c-4.437,4.437-6.653,6.654-13.308,8.872
	c-4.436,2.218-8.872,4.436-13.308,6.653c-11.09,4.437-19.962,8.872-22.18,17.744s-2.218,15.525,4.437,24.397
	c8.871,11.09,22.179,11.09,33.269,11.09c13.308,0,28.833-4.437,39.923-11.09c4.436-2.218,6.654-4.437,11.09-6.654
	s8.872-6.653,11.09-6.653l0,0c8.872-2.218,19.961-2.218,33.27,4.436c11.09,4.436,22.18,11.09,33.27,17.744
	c24.396,15.525,44.358,37.705,48.795,44.358C640.987,3218.24,640.987,3220.459,636.551,3224.895 M672.039,3216.022
	c-8.872-6.653-13.308-11.09-17.743-15.525l0,0l0,0l-2.219-2.218c-8.871-11.09-26.615-31.052-51.013-46.577
	c-17.743-11.09-51.013-33.27-82.063-24.397c-6.654,2.218-11.09,4.437-17.744,8.872c-2.218,2.218-6.654,4.436-8.871,6.653
	c-8.873,6.654-22.18,8.872-31.052,8.872s-15.526,0-17.743-2.218v-2.218c2.217-2.218,8.871-6.654,13.307-6.654
	c4.437-2.218,11.09-4.436,15.525-8.872c6.654-4.436,11.09-6.653,13.309-11.089c4.436-2.219,8.871-6.654,15.525-11.09
	c8.872-6.654,19.961-6.654,35.487-6.654l0,0c2.218,0,4.436,0,6.653,0c2.219,0,4.437,0,6.654,0c17.744,0,33.27,4.437,55.449,13.308
	c6.653,2.218,13.307,4.437,22.179,8.872c2.218,0,33.27,11.09,75.411,19.962c37.705,8.871,90.936,19.961,141.948,22.179
	c-2.218,8.872-4.437,15.526-6.654,24.397c-11.089,33.27-24.397,64.32-39.923,93.154
	C774.064,3273.689,711.961,3247.074,672.039,3216.022 M791.807,3420.074c-24.396,22.18-46.576,31.051-59.885,33.27
	c-4.436,0-8.871,2.218-13.307,2.218c-4.437,0-6.654,0-8.872,0l0,0c0-17.744,6.653-35.487,19.962-51.013
	c4.436-4.437,8.871-8.872,15.525-13.309l0,0l0,0c-2.219,15.526-6.654,28.834-6.654,28.834c0,2.218,0,4.436,2.219,6.653
	c2.217,2.218,4.436,2.218,6.653,2.218C762.974,3417.855,780.717,3417.855,791.807,3420.074L791.807,3420.074L791.807,3420.074
	 M833.949,3362.407c-8.872,11.09-15.526,19.962-24.397,26.615c-8.872,6.654-17.744,13.308-28.834,15.526
	c-8.871,2.218-17.743,4.436-22.179,4.436h-2.218l0,0c-2.219-17.744,4.436-33.27,15.525-51.013c4.436-4.437,6.654-11.09,11.09-15.526
	l0,0l0,0c2.218,15.526-2.219,28.834-2.219,31.052s0,4.436,2.219,6.653c2.218,2.219,4.436,2.219,6.654,0
	C807.333,3364.625,822.859,3362.407,833.949,3362.407L833.949,3362.407L833.949,3362.407 M847.256,3331.356
	c-8.872,8.871-17.744,13.308-26.615,17.743c-11.09,4.436-19.962,6.654-24.397,6.654l0,0l0,0c-2.218-17.744,0-35.487,8.872-53.231
	c2.218-6.653,6.653-11.09,11.09-17.743l0,0l0,0c2.217,15.525,2.217,31.051,2.217,31.051c0,2.219,0,4.437,2.219,6.654
	c2.218,0,4.436,0,6.654,0c15.525-13.308,31.051-17.744,42.141-19.962l0,0l0,0C862.782,3313.612,856.127,3324.702,847.256,3331.356
	 M880.526,3271.472c-6.654,8.872-15.525,15.525-24.398,22.179c-11.089,6.654-19.961,8.872-24.396,8.872l0,0l0,0
	c-4.436-17.743-4.436-35.487,2.218-55.448c2.218-6.654,4.436-11.09,8.872-17.744l0,0l0,0c4.436,15.526,4.436,28.834,4.436,28.834
	c0,2.218,2.218,4.436,4.436,4.436c2.219,0,4.437,0,6.654-2.218c13.308-13.308,24.397-19.962,33.27-22.18
	c2.218,0,4.436-2.218,6.653-2.218l0,0l0,0C893.833,3249.292,887.179,3260.382,880.526,3271.472 M902.706,3204.933
	c-6.654,8.872-13.309,17.744-22.18,24.397c-8.872,6.654-19.962,11.09-22.18,11.09l0,0l0,0c-8.872-19.961-6.654-39.923-2.219-55.448
	c2.219-6.654,4.437-13.308,6.654-19.962l0,0l0,0l0,0c6.654,13.308,8.872,31.052,8.872,31.052c0,2.218,2.218,4.436,4.437,4.436
	c2.217,0,4.436,0,6.653-2.218c13.308-15.525,26.615-24.397,37.705-28.834l0,0l0,0
	C916.012,3184.972,909.359,3196.062,902.706,3204.933 M922.667,3138.395c-4.436,11.09-11.09,19.962-19.961,26.615
	c-8.873,8.872-17.744,11.09-19.963,13.308l0,0l0,0c-8.871-15.525-11.089-33.269-8.871-55.448c0-6.654,2.218-13.308,4.436-19.962l0,0
	l0,0c8.872,13.308,11.09,28.833,11.09,31.052c0,2.218,2.219,4.436,4.436,4.436c2.219,0,4.437,0,6.654-2.218
	c11.09-17.744,24.397-26.615,33.27-33.27l0,0l0,0C931.539,3116.215,927.102,3127.305,922.667,3138.395"/>
<path fill="#231F20" d="M523.436,2373.202c66.538-11.09,73.191,8.872,73.191,8.872s2.219,4.436,6.654,2.218c0,0,4.436,0,2.219-6.653
	c0,0-6.654-22.18-42.142-24.397c0,0-17.743-2.219-37.705,0c-6.653,0-6.653,13.308-6.653,13.308
	C516.782,2373.202,523.436,2373.202,523.436,2373.202"/>
<path fill="#231F20" d="M465.769,2384.292c-8.872-4.436-26.615-2.218-26.615-2.218c-28.833,0-37.705,19.961-37.705,19.961
	c-2.218,6.654,2.218,6.654,2.218,6.654c6.654,2.218,8.872-4.436,8.872-4.436s2.218-4.437,13.308-8.872c0,2.218,0,4.436,0,6.653
	c0,8.872,6.654,15.526,15.525,15.526c8.872,0,15.525-6.654,15.525-15.526c0-2.218,0-4.436-2.218-6.653
	c4.437,2.218,8.872,4.436,11.09,8.872c0,2.218,4.437,2.218,8.872,2.218c6.654,0,4.436-4.437,4.436-4.437
	C476.859,2388.728,465.769,2384.292,465.769,2384.292"/>
<path fill="#231F20" d="M521.217,2408.689c6.654,0,8.873,0,8.873-2.218c2.217-4.437,6.653-8.872,11.089-8.872
	c0,2.218-2.218,4.436-2.218,6.654c0,8.871,6.654,15.525,15.525,15.525c8.872,0,15.525-6.654,15.525-15.525c0-2.219,0-4.437,0-6.654
	c13.309,2.218,13.309,8.872,13.309,8.872s2.218,4.436,8.871,4.436c0,0,4.436,0,2.219-6.653c0,0-8.872-17.744-37.705-19.962
	c0,0-17.744,0-26.615,2.218c0,0-8.873,4.437-13.309,19.962C516.782,2406.472,514.564,2408.689,521.217,2408.689"/>
<path fill="#231F20" d="M392.577,2384.292c4.436,2.218,6.654-2.218,6.654-2.218s6.653-19.962,73.191-8.872
	c0,0,6.654,2.218,4.437-4.436c0,0-2.218-13.308-6.653-13.308c-19.962-4.437-37.705,0-37.705,0
	c-35.488,4.436-42.142,24.397-42.142,24.397C388.141,2384.292,392.577,2384.292,392.577,2384.292"/>
<g>
	<path fill="#0094D4" d="M1634.627,2425.359h93.154l250.628,572.23h-106.462l-57.666-135.295H1545.91l-57.667,137.514h-102.025
		L1634.627,2425.359z M1778.794,2773.577l-97.59-228.448l-97.589,228.448H1778.794z"/>
	<path fill="#0094D4" d="M2047.167,2569.526h97.59v97.59c26.615-64.32,75.41-108.68,153.038-104.244v104.244h-6.653
		c-86.5,0-146.385,55.448-146.385,170.782v164.128h-97.59V2569.526z"/>
	<path fill="#0094D4" d="M2366.551,3079.654l35.486-73.192c46.577,28.833,93.154,46.577,153.039,46.577
		c88.718,0,135.295-46.577,135.295-130.859v-33.269c-35.487,46.576-79.847,79.846-150.82,79.846
		c-99.809,0-195.18-75.41-195.18-199.615v-2.218c0-126.424,95.371-201.834,195.18-201.834c73.191,0,117.551,33.27,150.82,73.192
		v-64.32h97.59v341.564c0,73.192-17.744,126.423-55.449,161.91c-39.923,39.923-99.808,57.667-175.218,57.667
		C2488.538,3130.667,2422,3112.924,2366.551,3079.654z M2692.589,2764.706L2692.589,2764.706c0-70.975-57.667-119.77-126.423-119.77
		c-68.757,0-121.987,46.577-121.987,117.551v2.218c0,70.975,55.448,117.552,121.987,117.552
		C2634.922,2882.257,2692.589,2833.462,2692.589,2764.706z"/>
	<path fill="#0094D4" d="M2874.461,2786.885L2874.461,2786.885c0-124.205,86.5-224.013,210.705-224.013
		c137.513,0,206.27,106.462,206.27,230.667c0,8.872,0,17.743-2.219,26.615h-317.166c11.09,70.975,59.884,108.68,124.205,108.68
		c48.795,0,82.063-17.744,115.333-51.013l57.667,51.013c-39.924,48.795-97.59,79.846-175.218,79.846
		C2969.833,3008.68,2874.461,2917.744,2874.461,2786.885z M3191.627,2753.616c-6.654-64.321-44.359-113.115-108.68-113.115
		c-59.884,0-102.025,46.576-110.896,113.115H3191.627z"/>
	<path fill="#0094D4" d="M3373.5,2569.526h97.59v66.538c26.615-39.923,66.538-75.41,133.077-75.41
		c97.589,0,153.038,64.32,153.038,164.128v272.808h-97.59v-243.974c0-66.539-33.27-104.244-90.937-104.244
		c-57.666,0-97.589,39.923-97.589,106.462v241.756h-97.59V2569.526z"/>
	<path fill="#0094D4" d="M3881.41,2880.039v-226.23h-55.448v-84.282h55.448v-117.552H3979v117.552h115.333v84.282H3979v210.705
		c0,37.705,19.961,53.23,53.23,53.23c22.179,0,42.141-4.436,59.884-15.525v79.846c-24.396,13.308-51.012,22.18-88.717,22.18
		C3932.422,3006.462,3881.41,2975.411,3881.41,2880.039z"/>
	<path fill="#0094D4" d="M4180.833,2412.052h106.462v93.154h-106.462V2412.052z M4185.268,2569.526h97.59v428.063h-97.59V2569.526z"
		/>
	<path fill="#0094D4" d="M4395.973,2569.526h97.59v66.538c26.615-39.923,66.539-75.41,133.077-75.41
		c97.589,0,153.038,64.32,153.038,164.128v272.808h-97.59v-243.974c0-66.539-33.27-104.244-90.936-104.244
		c-57.667,0-97.59,39.923-97.59,106.462v241.756h-97.59V2569.526z"/>
	<path fill="#0094D4" d="M4855.088,2875.604L4855.088,2875.604c0-93.154,73.193-139.731,177.436-139.731
		c48.795,0,82.064,6.654,115.334,17.744v-11.09c0-59.885-37.705-93.154-106.461-93.154c-48.795,0-84.283,11.09-121.988,26.615
		l-26.615-77.628c46.578-22.18,93.154-35.487,161.91-35.487c64.32,0,113.116,17.744,141.949,48.795
		c31.051,31.052,46.577,75.41,46.577,133.077v255.064h-97.59v-53.231c-28.833,35.487-73.192,62.103-139.731,62.103
		C4926.063,3008.68,4855.088,2962.104,4855.088,2875.604z M5147.858,2844.552v-28.833c-24.397-8.872-57.666-17.744-97.59-17.744
		c-64.32,0-99.807,26.616-99.807,70.975v2.218c0,42.142,35.486,64.321,84.281,64.321
		C5099.063,2937.706,5147.858,2900.001,5147.858,2844.552z"/>
	<path fill="#0094D4" d="M5338.602,2886.692h108.679v113.116h-108.679V2886.692z"/>
	<path fill="#0094D4" d="M5547.088,3079.654l35.488-73.192c46.576,28.833,93.153,46.577,153.038,46.577
		c88.718,0,135.295-46.577,135.295-130.859v-33.269c-35.487,46.576-79.847,79.846-150.82,79.846
		c-99.808,0-195.18-75.41-195.18-199.615v-2.218c0-126.424,95.372-201.834,195.18-201.834c73.192,0,117.551,33.27,150.82,73.192
		v-64.32h97.589v341.564c0,73.192-17.742,126.423-55.448,161.91c-39.923,39.923-99.808,57.667-175.218,57.667
		C5669.077,3130.667,5602.538,3112.924,5547.088,3079.654z M5873.127,2764.706L5873.127,2764.706
		c0-70.975-57.668-119.77-126.424-119.77s-121.987,46.577-121.987,117.551v2.218c0,70.975,55.448,117.552,121.987,117.552
		C5815.461,2882.257,5873.127,2833.462,5873.127,2764.706z"/>
	<path fill="#0094D4" d="M6052.781,2786.885L6052.781,2786.885c0-124.205,97.59-226.23,228.448-226.23
		c130.859,0,228.449,99.808,228.449,221.795v2.218c0,121.987-97.59,224.013-230.667,224.013
		C6150.371,3008.68,6052.781,2908.872,6052.781,2786.885z M6412.088,2786.885L6412.088,2786.885
		c0-77.628-55.448-139.73-130.858-139.73c-79.847,0-128.641,62.103-128.641,137.513v2.218c0,75.41,55.448,137.514,130.858,137.514
		C6361.076,2922.18,6412.088,2860.077,6412.088,2786.885z"/>
	<path fill="#0094D4" d="M6693.768,2933.27v66.539h-97.59v-594.41h97.59v235.103c31.051-44.359,75.41-79.847,146.385-79.847
		c99.808,0,199.615,79.847,199.615,221.795v2.218c0,141.949-97.59,221.795-199.615,221.795
		C6766.96,3008.68,6722.602,2973.193,6693.768,2933.27z M6937.743,2784.667L6937.743,2784.667
		c0-84.282-55.449-139.73-121.988-139.73c-66.538,0-124.205,55.448-124.205,137.513v2.218c0,82.064,57.667,137.513,124.205,137.513
		C6882.293,2922.18,6937.743,2868.949,6937.743,2784.667z"/>
	<path fill="#0094D4" d="M7117.396,2886.692h108.679v113.116h-108.679V2886.692z"/>
	<path fill="#0094D4" d="M7299.268,2875.604L7299.268,2875.604c0-93.154,73.191-139.731,177.436-139.731
		c48.795,0,82.064,6.654,115.334,17.744v-11.09c0-59.885-37.705-93.154-106.461-93.154c-48.795,0-84.282,11.09-121.987,26.615
		l-26.616-77.628c46.578-22.18,93.154-35.487,161.91-35.487c64.32,0,113.115,17.744,141.949,48.795
		c31.051,31.052,46.576,75.41,46.576,133.077v255.064h-95.371v-53.231c-28.833,35.487-73.191,62.103-139.73,62.103
		C7370.243,3008.68,7299.268,2962.104,7299.268,2875.604z M7592.038,2844.552v-28.833c-24.398-8.872-57.668-17.744-97.59-17.744
		c-64.32,0-99.809,26.616-99.809,70.975v2.218c0,42.142,35.488,64.321,84.282,64.321
		C7543.243,2937.706,7592.038,2900.001,7592.038,2844.552z"/>
	<path fill="#0094D4" d="M7787.217,2569.526h97.589v97.59c26.616-64.32,75.41-108.68,153.038-104.244v104.244h-6.653
		c-86.499,0-146.385,55.448-146.385,170.782v164.128h-97.589V2569.526z"/>
</g>
<path fill="#0094D4" d="M532.307,3553.15c0-2.218,0-4.436,0-8.871c0-2.219,0-4.437,0-6.654c11.09-2.218,31.052-8.872,42.142-22.18
	c6.653-6.653,8.872-17.743,8.872-26.615s-4.437-15.525-13.309-19.961c-19.961-13.309-59.885-4.437-70.974,0
	c-11.09-2.219-51.013-13.309-70.975,0c-6.653,4.436-11.09,11.089-13.308,19.961c-2.218,11.09,2.218,19.962,8.871,26.615
	c11.09,13.308,31.052,19.962,42.142,22.18c0,2.218,0,4.436,0,6.654c0,2.218,0,4.436,0,8.871
	c-8.872,8.872-37.705,33.27-77.628,37.705l0,0c2.218,2.219,4.436,8.872,11.09,13.308c35.486-6.653,62.102-26.615,73.191-37.704
	c2.219,2.218,2.219,2.218,4.437,4.436c-2.218,11.09-13.308,35.487-57.667,46.576c6.654,4.437,15.525,6.654,26.615,6.654
	c31.052-13.308,42.142-35.487,46.577-48.795c2.218,0,4.437,0,6.653,0c2.219,0,4.437,0,6.654,0
	c4.436,13.308,15.525,33.27,46.577,48.795c11.09-2.218,19.962-4.436,26.615-6.654c-44.358-11.089-55.448-37.705-57.667-46.576
	c2.219-2.218,2.219-2.218,4.437-4.436c11.09,11.089,37.705,31.051,73.192,37.704c6.654-6.653,11.09-13.308,11.09-13.308
	C567.795,3586.42,541.179,3562.022,532.307,3553.15z M454.679,3495.484c-2.218,8.871-2.218,17.743,2.218,24.397
	c-8.871-2.218-15.525-6.654-19.961-13.308c-4.436-4.437-4.436-8.872-4.436-15.526c0-4.436,2.217-6.653,6.653-8.871
	s11.09-4.437,19.962-4.437c4.436,0,6.653,0,11.09,0C461.333,3482.177,456.897,3486.612,454.679,3495.484z M499.039,3564.24
	c-8.872,0-17.743-8.871-17.743-17.743s8.871-17.743,17.743-17.743s17.743,8.871,17.743,17.743S507.911,3564.24,499.039,3564.24z
	 M521.217,3519.882c-6.653-4.437-13.307-8.872-22.179-8.872s-15.526,2.218-22.18,8.872c-4.437-4.437-8.872-13.308-6.653-19.962
	c6.653-15.525,28.833-15.525,28.833-15.525l0,0c0,0,6.653,0,13.308,2.218c8.871,2.218,13.308,6.653,15.525,13.308
	C530.09,3506.574,525.654,3515.445,521.217,3519.882z M561.141,3482.177c2.218,2.218,4.436,4.436,6.654,8.872
	c0,6.653,0,11.089-4.437,15.525c-4.437,6.653-13.308,8.871-19.962,13.308c4.436-8.872,4.436-15.526,2.219-24.397
	c-2.219-6.654-6.654-13.308-13.309-17.744C541.179,3477.74,554.487,3477.74,561.141,3482.177z"/>
<g>
	<path fill="#959595" d="M1400.613,3461.079l24.773-29.46c22.43,19.417,44.86,30.465,73.986,30.465
		c25.443,0,41.513-11.718,41.513-29.461v-0.67c0-16.738-9.374-25.777-52.895-35.82c-49.882-12.053-78.003-26.783-78.003-69.969
		v-0.67c0-40.173,33.478-67.96,80.012-67.96c34.147,0,61.264,10.378,85.033,29.461l-22.095,31.134
		c-21.091-15.734-42.182-24.104-63.608-24.104c-24.104,0-38.165,12.387-38.165,27.786v0.67c0,18.078,10.713,26.112,55.573,36.825
		c49.547,12.052,75.325,29.795,75.325,68.63v0.669c0,43.856-34.482,69.969-83.695,69.969
		C1462.546,3498.574,1428.734,3486.188,1400.613,3461.079z"/>
	<path fill="#959595" d="M1616.207,3407.515v-0.669c0-50.552,35.821-92.064,86.373-92.064c56.243,0,84.699,44.19,84.699,95.077
		c0,3.683-0.335,7.365-0.67,11.382h-129.894c4.352,28.791,24.773,44.86,50.886,44.86c19.752,0,33.813-7.365,47.873-21.091
		l23.77,21.091c-16.739,20.087-39.839,33.144-72.312,33.144C1655.711,3499.244,1616.207,3462.084,1616.207,3407.515z
		 M1747.105,3394.458c-2.678-26.112-18.078-46.534-44.86-46.534c-24.773,0-42.182,19.083-45.865,46.534H1747.105z"/>
	<path fill="#959595" d="M1818.407,3407.85v-0.67c0-50.217,38.834-92.398,91.729-92.398c33.478,0,54.234,12.387,70.638,30.465
		l-25.108,27.117c-12.387-13.057-25.443-22.096-45.865-22.096c-29.46,0-50.886,25.443-50.886,56.243v0.669
		c0,31.47,21.761,56.912,52.895,56.912c19.082,0,33.143-9.039,45.864-22.095l24.439,24.104
		c-17.409,19.417-37.83,33.144-72.312,33.144C1857.241,3499.244,1818.407,3458.066,1818.407,3407.85z"/>
	<path fill="#959595" d="M2019.271,3318.464h40.508v39.839c11.048-26.447,31.469-44.525,62.604-43.187v42.852h-2.343
		c-35.487,0-60.26,23.1-60.26,69.969v67.29h-40.508V3318.464z"/>
	<path fill="#959595" d="M2141.8,3407.515v-0.669c0-50.552,35.821-92.064,86.373-92.064c56.243,0,84.699,44.19,84.699,95.077
		c0,3.683-0.335,7.365-0.67,11.382h-129.894c4.352,28.791,24.773,44.86,50.886,44.86c19.752,0,33.813-7.365,47.873-21.091
		l23.77,21.091c-16.739,20.087-39.839,33.144-72.312,33.144C2181.304,3499.244,2141.8,3462.084,2141.8,3407.515z M2272.698,3394.458
		c-2.678-26.112-18.078-46.534-44.86-46.534c-24.773,0-42.182,19.083-45.865,46.534H2272.698z"/>
	<path fill="#959595" d="M2362.078,3446.349v-93.067h-22.43v-34.817h22.43v-48.543h40.508v48.543h47.538v34.817h-47.538v86.707
		c0,15.734,8.035,22.096,21.76,22.096c9.039,0,17.074-2.009,25.108-6.026v33.143c-10.043,5.691-21.426,9.039-36.491,9.039
		C2383.169,3498.239,2362.078,3485.184,2362.078,3446.349z"/>
	<path fill="#959595" d="M2599.095,3495.227v-21.761c-12.052,14.396-30.465,25.443-57.247,25.443
		c-33.478,0-62.938-19.082-62.938-54.569v-0.669c0-39.169,30.465-57.917,71.643-57.917c21.426,0,35.151,3.014,48.877,7.365v-3.348
		c0-24.438-15.4-37.83-43.521-37.83c-19.752,0-34.482,4.353-50.552,11.048l-11.047-32.474c19.417-8.704,38.5-14.73,67.29-14.73
		c52.226,0,77.668,27.452,77.668,74.656v104.785H2599.095z M2600.1,3421.24c-10.378-4.017-24.773-7.03-40.508-7.03
		c-25.443,0-40.508,10.379-40.508,27.452v0.67c0,16.738,15.065,26.112,34.147,26.112c26.782,0,46.869-15.065,46.869-37.16V3421.24z"
		/>
	<path fill="#959595" d="M2687.471,3318.464h40.508v39.839c11.048-26.447,31.469-44.525,62.604-43.187v42.852h-2.343
		c-35.487,0-60.26,23.1-60.26,69.969v67.29h-40.508V3318.464z"/>
	<path fill="#959595" d="M2828.075,3318.464h40.508v176.763h-40.508V3318.464z M2866.909,3241.13l36.826,16.404l-41.178,38.5
		h-30.465L2866.909,3241.13z"/>
	<path fill="#959595" d="M3029.608,3495.227v-21.761c-12.052,14.396-30.464,25.443-57.247,25.443
		c-33.478,0-62.938-19.082-62.938-54.569v-0.669c0-39.169,30.465-57.917,71.643-57.917c21.426,0,35.151,3.014,48.877,7.365v-3.348
		c0-24.438-15.4-37.83-43.521-37.83c-19.752,0-34.482,4.353-50.552,11.048l-11.047-32.474c19.417-8.704,38.5-14.73,67.29-14.73
		c52.226,0,77.668,27.452,77.668,74.656v104.785H3029.608z M3030.613,3421.24c-10.378-4.017-24.773-7.03-40.508-7.03
		c-25.443,0-40.508,10.379-40.508,27.452v0.67c0,16.738,15.065,26.112,34.147,26.112c26.782,0,46.869-15.065,46.869-37.16V3421.24z"
		/>
	<path fill="#959595" d="M3209.374,3407.18v-0.669c0-58.587,39.838-91.729,82.021-91.729c29.125,0,47.539,14.73,60.26,31.135
		v-95.077h40.508v244.388h-40.508v-29.461c-13.056,18.413-31.469,33.144-60.26,33.144
		C3249.882,3498.909,3209.374,3465.766,3209.374,3407.18z M3352.324,3407.18v-0.669c0-34.147-24.104-56.578-51.221-56.578
		c-27.787,0-50.886,21.426-50.886,56.578v0.669c0,34.147,23.435,56.578,50.886,56.578
		C3328.22,3463.758,3352.324,3440.992,3352.324,3407.18z"/>
	<path fill="#959595" d="M3433.002,3407.515v-0.669c0-50.552,35.821-92.064,86.373-92.064c56.243,0,84.699,44.19,84.699,95.077
		c0,3.683-0.335,7.365-0.67,11.382H3473.51c4.352,28.791,24.773,44.86,50.886,44.86c19.752,0,33.813-7.365,47.873-21.091
		l23.77,21.091c-16.739,20.087-39.839,33.144-72.312,33.144C3472.506,3499.244,3433.002,3462.084,3433.002,3407.515z
		 M3563.9,3394.458c-2.678-26.112-18.078-46.534-44.86-46.534c-24.773,0-42.182,19.083-45.865,46.534H3563.9z"/>
	<path fill="#959595" d="M3745.339,3318.464h40.508v39.839c11.048-26.447,31.469-44.525,62.604-43.187v42.852h-2.343
		c-35.487,0-60.26,23.1-60.26,69.969v67.29h-40.508V3318.464z"/>
	<path fill="#959595" d="M3867.868,3407.515v-0.669c0-50.552,35.821-92.064,86.373-92.064c56.243,0,84.699,44.19,84.699,95.077
		c0,3.683-0.335,7.365-0.669,11.382h-129.894c4.352,28.791,24.773,44.86,50.886,44.86c19.752,0,33.813-7.365,47.873-21.091
		l23.77,21.091c-16.739,20.087-39.839,33.144-72.312,33.144C3907.372,3499.244,3867.868,3462.084,3867.868,3407.515z
		 M3998.766,3394.458c-2.678-26.112-18.078-46.534-44.86-46.534c-24.773,0-42.182,19.083-45.865,46.534H3998.766z"/>
	<path fill="#959595" d="M4082.12,3250.839h40.508v244.388h-40.508V3250.839z"/>
	<path fill="#959595" d="M4283.653,3495.227v-21.761c-12.052,14.396-30.464,25.443-57.247,25.443
		c-33.478,0-62.938-19.082-62.938-54.569v-0.669c0-39.169,30.465-57.917,71.643-57.917c21.426,0,35.151,3.014,48.877,7.365v-3.348
		c0-24.438-15.4-37.83-43.521-37.83c-19.752,0-34.482,4.353-50.552,11.048l-11.047-32.474c19.417-8.704,38.5-14.73,67.29-14.73
		c52.226,0,77.668,27.452,77.668,74.656v104.785H4283.653z M4284.658,3421.24c-10.378-4.017-24.773-7.03-40.508-7.03
		c-25.443,0-40.508,10.379-40.508,27.452v0.67c0,16.738,15.065,26.112,34.147,26.112c26.782,0,46.869-15.065,46.869-37.16V3421.24z"
		/>
	<path fill="#959595" d="M4362.321,3407.85v-0.67c0-50.217,38.834-92.398,91.729-92.398c33.478,0,54.234,12.387,70.638,30.465
		l-25.108,27.117c-12.387-13.057-25.443-22.096-45.865-22.096c-29.46,0-50.886,25.443-50.886,56.243v0.669
		c0,31.47,21.761,56.912,52.895,56.912c19.082,0,33.143-9.039,45.864-22.095l24.439,24.104
		c-17.409,19.417-37.83,33.144-72.312,33.144C4401.155,3499.244,4362.321,3458.066,4362.321,3407.85z"/>
	<path fill="#959595" d="M4563.855,3252.848h43.521v38.499h-43.521V3252.848z M4565.529,3318.464h40.508v176.763h-40.508V3318.464z"
		/>
	<path fill="#959595" d="M4649.22,3407.85v-0.67c0-50.551,40.174-92.398,94.407-92.398c54.234,0,94.073,41.178,94.073,91.729v0.669
		c0,50.217-40.174,92.064-94.742,92.064C4689.059,3499.244,4649.22,3458.066,4649.22,3407.85z M4797.192,3407.85v-0.67
		c0-31.134-22.43-56.912-54.233-56.912c-32.474,0-53.23,25.443-53.23,56.243v0.669c0,30.8,22.431,56.912,53.899,56.912
		C4776.436,3464.092,4797.192,3438.314,4797.192,3407.85z"/>
	<path fill="#959595" d="M4878.875,3318.464h40.508v27.452c11.383-16.739,27.786-31.135,55.238-31.135
		c39.839,0,62.938,26.782,62.938,67.96v112.485h-40.508v-100.434c0-27.451-13.727-43.187-37.83-43.187
		c-23.435,0-39.839,16.404-39.839,43.856v99.764h-40.508V3318.464z"/>
	<path fill="#959595" d="M5076.725,3407.515v-0.669c0-50.552,35.821-92.064,86.373-92.064c56.242,0,84.698,44.19,84.698,95.077
		c0,3.683-0.334,7.365-0.669,11.382h-129.894c4.352,28.791,24.773,44.86,50.886,44.86c19.752,0,33.813-7.365,47.873-21.091
		l23.77,21.091c-16.739,20.087-39.839,33.144-72.313,33.144C5116.229,3499.244,5076.725,3462.084,5076.725,3407.515z
		 M5207.624,3394.458c-2.679-26.112-18.078-46.534-44.86-46.534c-24.773,0-42.182,19.083-45.864,46.534H5207.624z"/>
	<path fill="#959595" d="M5274.239,3472.127l18.078-27.452c19.082,14.396,39.838,21.761,57.916,21.761
		c17.409,0,27.452-7.365,27.452-19.082v-0.67c0-13.726-18.748-18.412-39.504-24.773c-26.112-7.365-55.238-18.078-55.238-51.891
		v-0.67c0-33.478,27.786-53.898,62.938-53.898c22.095,0,46.199,7.699,64.946,20.086l-16.069,28.791
		c-17.073-10.378-35.151-16.738-49.882-16.738c-15.734,0-24.773,7.365-24.773,17.743v0.669c0,12.722,19.082,18.078,39.839,24.773
		c25.777,8.035,54.903,19.752,54.903,51.557v0.669c0,37.16-28.791,55.573-65.616,55.573
		C5324.121,3498.574,5296.333,3489.535,5274.239,3472.127z"/>
	<path fill="#959595" d="M5556.449,3318.464h40.508v29.46c13.057-18.412,31.469-33.143,59.926-33.143
		c41.847,0,82.354,33.143,82.354,91.729v0.669c0,58.586-40.173,91.729-82.354,91.729c-29.126,0-47.539-14.73-59.926-31.135v81.017
		h-40.508V3318.464z M5698.059,3407.18v-0.669c0-34.147-23.1-56.578-50.551-56.578c-27.452,0-51.556,22.766-51.556,56.578v0.669
		c0,34.147,24.104,56.578,51.556,56.578C5675.294,3463.758,5698.059,3441.997,5698.059,3407.18z"/>
	<path fill="#959595" d="M5888.88,3495.227v-21.761c-12.052,14.396-30.465,25.443-57.247,25.443
		c-33.478,0-62.938-19.082-62.938-54.569v-0.669c0-39.169,30.465-57.917,71.643-57.917c21.426,0,35.152,3.014,48.878,7.365v-3.348
		c0-24.438-15.399-37.83-43.521-37.83c-19.752,0-34.481,4.353-50.551,11.048l-11.048-32.474c19.417-8.704,38.499-14.73,67.29-14.73
		c52.226,0,77.669,27.452,77.669,74.656v104.785H5888.88z M5889.885,3421.24c-10.379-4.017-24.774-7.03-40.509-7.03
		c-25.442,0-40.508,10.379-40.508,27.452v0.67c0,16.738,15.065,26.112,34.147,26.112c26.782,0,46.869-15.065,46.869-37.16V3421.24z"
		/>
	<path fill="#959595" d="M5977.256,3318.464h40.508v39.839c11.048-26.447,31.469-44.525,62.604-43.187v42.852h-2.344
		c-35.486,0-60.26,23.1-60.26,69.969v67.29h-40.508V3318.464z"/>
	<path fill="#959595" d="M6117.859,3250.839h40.509v244.388h-40.509V3250.839z"/>
	<path fill="#959595" d="M6319.393,3495.227v-21.761c-12.052,14.396-30.465,25.443-57.247,25.443
		c-33.478,0-62.938-19.082-62.938-54.569v-0.669c0-39.169,30.464-57.917,71.642-57.917c21.426,0,35.152,3.014,48.878,7.365v-3.348
		c0-24.438-15.399-37.83-43.521-37.83c-19.752,0-34.481,4.353-50.551,11.048l-11.048-32.474c19.417-8.704,38.499-14.73,67.29-14.73
		c52.226,0,77.669,27.452,77.669,74.656v104.785H6319.393z M6320.398,3421.24c-10.379-4.017-24.773-7.03-40.509-7.03
		c-25.442,0-40.508,10.379-40.508,27.452v0.67c0,16.738,15.065,26.112,34.147,26.112c26.782,0,46.869-15.065,46.869-37.16V3421.24z"
		/>
	<path fill="#959595" d="M6407.769,3318.464h40.508v26.782c11.383-15.734,26.782-30.465,53.899-30.465
		c25.443,0,43.187,12.387,52.56,31.135c14.396-18.748,33.144-31.135,59.926-31.135c38.499,0,61.934,24.438,61.934,67.625v112.82
		h-40.508v-100.434c0-28.121-13.057-43.187-35.821-43.187c-22.096,0-37.83,15.4-37.83,43.856v99.764h-40.508v-100.769
		c0-27.451-13.392-42.852-35.821-42.852c-22.431,0-37.83,16.739-37.83,44.191v99.429h-40.508V3318.464z"/>
	<path fill="#959595" d="M6716.095,3407.515v-0.669c0-50.552,35.821-92.064,86.373-92.064c56.242,0,84.698,44.19,84.698,95.077
		c0,3.683-0.334,7.365-0.669,11.382h-129.895c4.353,28.791,24.774,44.86,50.887,44.86c19.752,0,33.813-7.365,47.873-21.091
		l23.77,21.091c-16.739,20.087-39.839,33.144-72.313,33.144C6755.599,3499.244,6716.095,3462.084,6716.095,3407.515z
		 M6846.994,3394.458c-2.679-26.112-18.078-46.534-44.86-46.534c-24.773,0-42.182,19.083-45.864,46.534H6846.994z"/>
	<path fill="#959595" d="M6928.003,3318.464h40.508v27.452c11.383-16.739,27.787-31.135,55.238-31.135
		c39.839,0,62.938,26.782,62.938,67.96v112.485h-40.508v-100.434c0-27.451-13.727-43.187-37.83-43.187
		c-23.435,0-39.839,16.404-39.839,43.856v99.764h-40.508V3318.464z"/>
	<path fill="#959595" d="M7143.931,3446.349v-93.067h-22.43v-34.817h22.43v-48.543h40.508v48.543h47.539v34.817h-47.539v86.707
		c0,15.734,8.035,22.096,21.761,22.096c9.039,0,17.074-2.009,25.108-6.026v33.143c-10.043,5.691-21.426,9.039-36.49,9.039
		C7165.022,3498.239,7143.931,3485.184,7143.931,3446.349z"/>
	<path fill="#959595" d="M7380.949,3495.227v-21.761c-12.052,14.396-30.465,25.443-57.247,25.443
		c-33.478,0-62.938-19.082-62.938-54.569v-0.669c0-39.169,30.465-57.917,71.643-57.917c21.426,0,35.152,3.014,48.878,7.365v-3.348
		c0-24.438-15.399-37.83-43.521-37.83c-19.752,0-34.481,4.353-50.551,11.048l-11.048-32.474c19.417-8.704,38.499-14.73,67.29-14.73
		c52.226,0,77.669,27.452,77.669,74.656v104.785H7380.949z M7381.954,3421.24c-10.379-4.017-24.774-7.03-40.509-7.03
		c-25.442,0-40.508,10.379-40.508,27.452v0.67c0,16.738,15.065,26.112,34.147,26.112c26.782,0,46.869-15.065,46.869-37.16V3421.24z"
		/>
	<path fill="#959595" d="M7469.326,3318.464h40.508v39.839c11.048-26.447,31.469-44.525,62.604-43.187v42.852h-2.344
		c-35.486,0-60.26,23.1-60.26,69.969v67.29h-40.508V3318.464z"/>
	<path fill="#959595" d="M7608.254,3252.848h43.521v38.499h-43.521V3252.848z M7609.928,3318.464h40.509v176.763h-40.509V3318.464z"
		/>
	<path fill="#959595" d="M7811.462,3495.227v-21.761c-12.052,14.396-30.465,25.443-57.247,25.443
		c-33.478,0-62.938-19.082-62.938-54.569v-0.669c0-39.169,30.465-57.917,71.643-57.917c21.426,0,35.152,3.014,48.878,7.365v-3.348
		c0-24.438-15.399-37.83-43.521-37.83c-19.752,0-34.481,4.353-50.551,11.048l-11.048-32.474c19.417-8.704,38.499-14.73,67.29-14.73
		c52.226,0,77.669,27.452,77.669,74.656v104.785H7811.462z M7812.467,3421.24c-10.379-4.017-24.774-7.03-40.509-7.03
		c-25.442,0-40.508,10.379-40.508,27.452v0.67c0,16.738,15.065,26.112,34.147,26.112c26.782,0,46.869-15.065,46.869-37.16V3421.24z"
		/>
	<path fill="#959595" d="M7885.443,3472.127l18.078-27.452c19.082,14.396,39.838,21.761,57.916,21.761
		c17.408,0,27.452-7.365,27.452-19.082v-0.67c0-13.726-18.748-18.412-39.504-24.773c-26.112-7.365-55.238-18.078-55.238-51.891
		v-0.67c0-33.478,27.786-53.898,62.938-53.898c22.095,0,46.199,7.699,64.946,20.086l-16.069,28.791
		c-17.073-10.378-35.151-16.738-49.882-16.738c-15.734,0-24.773,7.365-24.773,17.743v0.669c0,12.722,19.082,18.078,39.839,24.773
		c25.777,8.035,54.903,19.752,54.903,51.557v0.669c0,37.16-28.791,55.573-65.616,55.573
		C7935.325,3498.574,7907.538,3489.535,7885.443,3472.127z"/>
</g>
</svg>
